<svg width="443" height="459" viewBox="0 0 443 459" fill="none" xmlns="http://www.w3.org/2000/svg">
<g clip-path="url(#clip0)">
<path opacity="0.4" d="M273.492 363.024L218.214 331.208C214.226 328.917 214.729 324.904 219.335 322.263L255.145 301.646L324.886 341.725L289.075 362.342C284.479 365.03 277.518 365.314 273.492 363.024Z" fill="#D6D8E5"/>
<path d="M277.566 360.657L222.288 328.842C218.3 326.551 218.803 322.537 223.409 319.896L259.248 299.279L328.95 339.396L293.14 360.013C288.515 362.664 281.554 362.948 277.566 360.657Z" fill="#B1B4C4"/>
<path d="M328.931 339.406V337.295L325.712 339.15L328.931 339.406Z" fill="#B1B4C4"/>
<path d="M219.601 325.046V322.916L222.905 324.279L219.601 325.046Z" fill="#B1B4C4"/>
<path d="M277.566 358.546L222.288 326.74C218.3 324.44 218.803 320.436 223.409 317.785L259.248 297.178L328.95 337.295L293.14 357.902C288.515 360.553 281.554 360.846 277.566 358.546Z" fill="#D6D8E5"/>
<path d="M259.409 297.272L250.777 268.742L321.248 309.029L328.931 337.295L259.409 297.272Z" fill="#9EA1AF"/>
<path d="M326.88 338.469L328.921 337.295L325.892 334.881L326.88 338.469Z" fill="#9EA1AF"/>
<path d="M257.177 298.342L248.555 269.811L319.026 310.108L326.88 338.469L257.177 298.342Z" fill="#B1B4C4"/>
<path d="M436.068 386.556L163.335 229.571C159.537 227.375 156.403 221.459 156.403 216.375V6.04882C156.403 0.96554 159.508 -1.37258 163.335 0.833015L436.068 157.818C439.866 160.014 443 165.921 443 171.004V381.34C443 386.424 439.895 388.762 436.068 386.556Z" fill="#C4C7D6"/>
<path d="M437.473 388.724L440.493 386.992L439.192 378.056L437.473 388.724Z" fill="#C4C7D6"/>
<path d="M155.881 2.1204L158.853 0.416504L163.127 2.83982C163.127 2.83982 158.578 3.53084 158.464 3.51191C158.35 3.49297 155.881 2.1204 155.881 2.1204Z" fill="#B1B4C4"/>
<path d="M433.57 387.995L160.79 230.972C156.992 228.776 153.868 222.869 153.868 217.776V7.48766C153.868 2.40438 156.973 0.0662651 160.79 2.27186L433.57 159.257C437.369 161.453 440.493 167.36 440.493 172.453V382.779C440.493 387.863 437.397 390.201 433.57 387.995Z" fill="#E4E7F2"/>
<path d="M433.086 388.27L160.316 231.284C156.517 229.079 153.383 223.172 153.383 218.089V7.76218C153.383 2.6789 156.489 0.340786 160.316 2.54638L433.086 159.532C436.884 161.728 440.018 167.635 440.018 172.718V383.054C440.018 388.109 436.913 390.475 433.086 388.27Z" fill="#D6D8E5"/>
<path d="M436.267 375.481L156.849 214.671L156.992 8.60466C156.992 6.49373 158.483 5.64178 160.316 6.71145L433.086 163.678C434.052 164.307 434.857 165.154 435.434 166.151C436.012 167.147 436.346 168.265 436.409 169.414L436.267 375.481Z" fill="white"/>
<path d="M196.287 74.8292L170.932 60.2136C170.493 59.8982 170.134 59.4849 169.884 59.0067C169.633 58.5285 169.498 57.9985 169.489 57.459V28.739C169.489 27.6788 170.135 27.196 170.932 27.6504L196.287 42.2754C196.727 42.5878 197.087 42.9991 197.338 43.4761C197.589 43.953 197.724 44.4822 197.731 45.0206V73.7406C197.731 74.7819 197.085 75.2931 196.287 74.8292Z" fill="#E9EAF2"/>
<path d="M231.499 95.0961L206.068 80.4615C205.629 80.1461 205.27 79.7329 205.019 79.2546C204.769 78.7764 204.634 78.2464 204.625 77.7069V49.0058C204.625 47.9456 205.271 47.4628 206.068 47.9172L231.471 62.5423C231.92 62.8543 232.288 63.2688 232.544 63.7513C232.8 64.2337 232.937 64.7701 232.943 65.3158V94.0075C232.943 95.0677 232.297 95.6072 231.499 95.0961Z" fill="#E9EAF2"/>
<path d="M265.895 114.871L240.445 100.246C240.005 99.9333 239.645 99.522 239.394 99.045C239.143 98.5681 239.009 98.0389 239.001 97.5005V68.7804C239.001 67.7202 239.647 67.228 240.445 67.6918L265.895 82.3548C266.335 82.6671 266.695 83.0784 266.946 83.5554C267.197 84.0323 267.331 84.5615 267.338 85.0999V113.782C267.291 114.842 266.645 115.325 265.895 114.871Z" fill="#E9EAF2"/>
<path d="M196.287 115.363L170.932 100.747C170.493 100.432 170.134 100.019 169.884 99.5404C169.633 99.0622 169.498 98.5322 169.489 97.9927V69.2727C169.489 68.2125 170.135 67.7297 170.932 68.1841L196.287 82.7997C196.727 83.1151 197.086 83.5284 197.336 84.0066C197.587 84.4848 197.722 85.0148 197.731 85.5543V114.274C197.731 115.335 197.085 115.827 196.287 115.363Z" fill="#E9EAF2"/>
<path d="M231.499 135.63L206.068 121.014C205.629 120.699 205.27 120.285 205.019 119.807C204.769 119.329 204.634 118.799 204.625 118.26V89.5395C204.625 88.4793 205.271 87.9965 206.068 88.4509L231.471 103.066C231.91 103.382 232.269 103.795 232.52 104.273C232.77 104.752 232.906 105.282 232.914 105.821V134.541C232.943 135.601 232.297 136.094 231.499 135.63Z" fill="#E9EAF2"/>
<path d="M234.966 133.727L209.563 119.102C209.123 118.79 208.763 118.378 208.512 117.901C208.261 117.424 208.127 116.895 208.12 116.357V87.6368C208.12 86.5766 208.765 86.0844 209.563 86.5482L234.966 101.164C235.405 101.479 235.764 101.893 236.014 102.371C236.265 102.849 236.4 103.379 236.409 103.918V132.638C236.456 133.699 235.763 134.181 234.966 133.727Z" fill="#19D3DA"/>
<path d="M265.895 155.395L240.445 140.779C240.005 140.467 239.645 140.056 239.394 139.579C239.143 139.102 239.009 138.573 239.001 138.034V109.305C239.001 108.254 239.647 107.762 240.445 108.226L265.895 122.841C266.335 123.153 266.695 123.565 266.946 124.042C267.197 124.519 267.331 125.048 267.338 125.586V154.297C267.291 155.366 266.645 155.859 265.895 155.395Z" fill="#E9EAF2"/>
<path d="M196.287 156.749L170.932 142.133C170.492 141.821 170.132 141.409 169.882 140.932C169.631 140.455 169.496 139.926 169.489 139.388V110.658C169.489 109.608 170.135 109.115 170.932 109.579L196.287 124.195C196.727 124.507 197.087 124.918 197.338 125.395C197.589 125.872 197.724 126.401 197.731 126.94V155.669C197.731 156.72 197.085 157.212 196.287 156.749Z" fill="#E9EAF2"/>
<path d="M265.895 219.953L170.932 165.306C170.493 164.99 170.134 164.577 169.884 164.099C169.633 163.621 169.498 163.091 169.489 162.551V155.925C169.489 154.865 170.135 154.373 170.932 154.836L265.895 209.493C266.335 209.806 266.695 210.217 266.946 210.694C267.197 211.171 267.331 211.7 267.338 212.239V218.865C267.291 219.925 266.645 220.417 265.895 219.953Z" fill="#E9EAF2"/>
<path d="M241.461 221.506L171.312 181.171C170.872 180.859 170.512 180.447 170.261 179.97C170.011 179.493 169.876 178.964 169.869 178.426V175.122C169.869 174.062 170.515 173.57 171.312 174.034L241.461 214.397C241.9 214.712 242.259 215.126 242.51 215.604C242.761 216.082 242.896 216.612 242.905 217.152V220.436C242.905 221.506 242.259 221.998 241.461 221.506Z" fill="#E9EAF2"/>
<path d="M241.461 234.001L171.312 193.628C170.872 193.316 170.512 192.905 170.261 192.428C170.011 191.951 169.876 191.422 169.869 190.883V187.598C169.869 186.538 170.515 186.055 171.312 186.51L241.461 226.873C241.9 227.189 242.259 227.602 242.51 228.08C242.761 228.558 242.896 229.088 242.905 229.628V232.913C242.905 233.973 242.259 234.455 241.461 234.001Z" fill="#E9EAF2"/>
<path d="M228.223 238.848L171.312 206.086C170.872 205.773 170.512 205.362 170.261 204.885C170.011 204.408 169.876 203.879 169.869 203.341V200.056C169.869 198.996 170.515 198.513 171.312 198.967L228.223 231.72C228.663 232.035 229.022 232.448 229.272 232.927C229.523 233.405 229.658 233.935 229.667 234.474V237.759C229.667 238.819 229.021 239.302 228.223 238.848Z" fill="#19D3DA"/>
<path d="M422.213 310.487L285.115 231.616C284.675 231.303 284.315 230.892 284.064 230.415C283.814 229.938 283.679 229.409 283.672 228.87V222.244C283.672 221.184 284.318 220.701 285.115 221.156L422.213 300.074C422.653 300.387 423.013 300.798 423.264 301.275C423.514 301.752 423.649 302.281 423.656 302.819V309.446C423.656 310.487 423.01 310.979 422.213 310.487Z" fill="#E9EAF2"/>
<path d="M408.699 318.363L285.552 247.481C285.112 247.168 284.752 246.757 284.501 246.28C284.25 245.803 284.116 245.274 284.109 244.736V241.451C284.109 240.391 284.754 239.908 285.552 240.362L408.699 311.235C409.139 311.55 409.498 311.963 409.748 312.442C409.999 312.92 410.134 313.45 410.143 313.989V317.274C410.143 318.334 409.497 318.817 408.699 318.363Z" fill="#E9EAF2"/>
<path d="M408.699 330.82L285.552 259.948C285.113 259.632 284.754 259.219 284.503 258.741C284.253 258.262 284.117 257.732 284.109 257.193V253.908C284.109 252.848 284.754 252.365 285.552 252.82L408.699 323.739C409.14 324.052 409.5 324.463 409.75 324.94C410.001 325.417 410.136 325.946 410.143 326.485V329.769C410.143 330.792 409.497 331.312 408.699 330.82Z" fill="#E9EAF2"/>
<path d="M385.87 330.138L285.552 272.395C285.113 272.08 284.754 271.667 284.503 271.189C284.253 270.71 284.117 270.18 284.109 269.641V266.356C284.109 265.296 284.754 264.813 285.552 265.268L385.87 323.011C386.309 323.324 386.668 323.736 386.918 324.213C387.169 324.689 387.304 325.218 387.314 325.756V329.04C387.314 330.11 386.659 330.593 385.87 330.138Z" fill="#19D3DA"/>
<path d="M231.499 177.015L206.068 162.4C205.628 162.087 205.268 161.676 205.018 161.199C204.767 160.722 204.632 160.193 204.625 159.655V130.925C204.625 129.874 205.271 129.382 206.068 129.846L231.471 144.462C231.911 144.774 232.271 145.185 232.522 145.662C232.773 146.139 232.907 146.668 232.914 147.207V175.936C232.943 177.015 232.297 177.479 231.499 177.015Z" fill="#E9EAF2"/>
<path d="M265.895 196.79L240.445 182.165C240.005 181.853 239.645 181.441 239.394 180.964C239.143 180.487 239.009 179.958 239.001 179.42V150.7C239.001 149.64 239.647 149.147 240.445 149.611L265.895 164.227C266.334 164.542 266.693 164.955 266.944 165.434C267.194 165.912 267.329 166.442 267.338 166.981V195.701C267.291 196.762 266.645 197.244 265.895 196.79Z" fill="#E9EAF2"/>
<path d="M422.213 286.822L285.115 207.875C284.675 207.562 284.315 207.151 284.064 206.674C283.814 206.197 283.679 205.668 283.672 205.13V160.128C283.672 159.068 284.318 158.576 285.115 159.039L422.213 237.939C422.652 238.254 423.011 238.668 423.262 239.146C423.512 239.624 423.647 240.154 423.656 240.694V285.695C423.656 286.756 423.01 287.238 422.213 286.822Z" fill="#E9EAF2"/>
<path d="M303.88 153.208C292.238 146.506 282.76 130.158 282.76 116.754C282.76 103.35 292.257 97.9075 303.88 104.6C315.503 111.293 324.99 127.659 324.99 141.054C324.99 154.448 315.513 159.91 303.88 153.208ZM303.88 111.624C295.599 106.891 288.866 110.743 288.866 120.266C288.866 129.789 295.599 141.423 303.88 146.184C312.161 150.946 318.894 147.074 318.894 137.542C318.894 128.01 312.142 116.433 303.88 111.624Z" fill="#E9EAF2"/>
<path d="M303.88 153.208C292.238 146.506 282.76 130.158 282.76 116.754C282.76 103.35 292.257 97.9075 303.88 104.6V111.624C295.599 106.891 288.866 110.743 288.866 120.266C288.866 129.789 295.599 141.423 303.88 146.184C312.161 150.946 318.894 147.074 318.894 137.542L324.99 141.054C324.981 154.458 315.513 159.91 303.88 153.208Z" fill="#19D3DA"/>
<path d="M353.127 181.569C341.485 174.867 332.017 158.509 332.017 145.115C332.017 131.72 341.514 126.258 353.127 132.96C364.741 139.662 374.238 156.01 374.238 169.414C374.238 182.818 364.77 188.271 353.127 181.569ZM353.127 139.984C344.847 135.251 338.114 139.094 338.114 148.627C338.114 158.159 344.847 169.774 353.127 174.545C361.408 179.316 368.141 175.435 368.141 165.902C368.141 156.37 361.408 144.746 353.127 139.984Z" fill="#E9EAF2"/>
<path d="M353.127 181.569C341.485 174.867 332.017 158.509 332.017 145.115C332.017 131.72 341.514 126.258 353.127 132.96V139.984C344.847 135.251 338.114 139.094 338.114 148.627C338.114 158.159 344.847 169.774 353.127 174.545C356.204 176.315 359.158 176.949 361.674 176.438L365.159 184.21C361.617 184.957 357.458 184.058 353.127 181.569Z" fill="#19D3DA"/>
<path d="M402.384 209.91C390.742 203.208 381.274 186.851 381.274 173.456C381.274 160.062 390.77 154.6 402.384 161.302C413.998 168.004 423.532 184.352 423.532 197.756C423.532 211.16 414.036 216.612 402.384 209.91ZM402.384 168.326C394.113 163.593 387.371 167.436 387.371 176.968C387.371 186.5 394.113 198.115 402.384 202.886C410.656 207.657 417.398 203.776 417.398 194.244C417.398 184.711 410.665 173.087 402.384 168.326Z" fill="#E9EAF2"/>
<path d="M384.009 187.012C382.291 182.693 381.365 178.101 381.274 173.456C381.274 160.052 390.77 154.6 402.384 161.302V168.326C394.113 163.593 387.371 167.436 387.371 176.968C387.443 180.269 388.112 183.531 389.346 186.595L384.009 187.012Z" fill="#19D3DA"/>
<path opacity="0.4" d="M322.483 454.144C334.325 454.144 343.926 448.617 343.926 441.8C343.926 434.983 334.325 429.456 322.483 429.456C310.641 429.456 301.041 434.983 301.041 441.8C301.041 448.617 310.641 454.144 322.483 454.144Z" fill="#D6D8E5"/>
<path opacity="0.4" d="M95.7982 459.009C107.641 459.009 117.241 453.483 117.241 446.666C117.241 439.848 107.641 434.322 95.7982 434.322C83.9559 434.322 74.3557 439.848 74.3557 446.666C74.3557 453.483 83.9559 459.009 95.7982 459.009Z" fill="#D6D8E5"/>
<path opacity="0.4" d="M21.4425 347.035C33.2849 347.035 42.8851 341.509 42.8851 334.692C42.8851 327.874 33.2849 322.348 21.4425 322.348C9.60015 322.348 0 327.874 0 334.692C0 341.509 9.60015 347.035 21.4425 347.035Z" fill="#D6D8E5"/>
<path d="M333.147 438.847C331.751 439.973 329.691 438.941 329.586 439.045C327.952 440.563 326.233 441.988 324.439 443.315C323.575 443.996 322.217 444.915 322.464 446.221C322.901 448.568 326.661 447.849 328.086 447.167C329.51 446.486 330.659 445.274 332.008 444.432C332.957 443.835 333.907 443.532 334.059 442.321C334.144 441.554 333.394 438.818 333.147 438.847Z" fill="#38226D"/>
<path d="M334.04 441.8C333.85 442.955 332.919 443.277 331.97 443.864C330.602 444.706 329.406 445.927 327.981 446.637C326.557 447.347 323.404 447.963 322.483 446.287C322.986 448.549 326.68 447.84 328.086 447.13C329.491 446.42 330.659 445.236 332.008 444.394C332.957 443.797 333.907 443.495 334.059 442.283C334.065 442.122 334.059 441.96 334.04 441.8Z" fill="#9C73FF"/>
<path d="M321.04 434.36C319.644 435.496 317.241 434.256 317.099 434.36C315.652 435.83 314.117 437.211 312.503 438.496C311.638 439.178 310.28 440.096 310.527 441.403C310.964 443.741 314.725 443.021 316.149 442.349C317.574 441.677 318.723 440.456 320.071 439.613C321.021 439.017 321.97 438.667 322.122 437.503C322.208 436.736 321.287 434.331 321.04 434.36Z" fill="#38226D"/>
<path d="M322.075 437.143C321.923 438.279 320.973 438.62 320.024 439.225C318.656 440.068 317.45 441.289 316.035 442.008C314.62 442.728 311.448 443.324 310.527 441.649C311.031 443.911 314.725 443.201 316.13 442.491C317.536 441.781 318.713 440.598 320.052 439.755C321.002 439.159 321.951 438.809 322.103 437.654C322.118 437.483 322.109 437.311 322.075 437.143Z" fill="#9C73FF"/>
<path d="M333.223 387.531C333.157 389.633 332.502 398.758 332.207 403.623C331.913 408.489 331.846 414.377 331.846 414.377C331.846 414.377 332.682 417.898 333.223 422.035C333.765 426.172 333.223 439.235 333.223 439.235C332.691 439.577 332.071 439.759 331.438 439.759C330.805 439.759 330.185 439.577 329.653 439.235C329.653 439.235 327.421 428.822 326.386 424.089C325.351 419.356 325.18 416.658 324.639 413.743C323.993 410.212 322.588 393.731 322.588 393.731H322.027L320.536 412.332C321.001 413.702 321.32 415.117 321.486 416.554C321.894 419.593 321.059 434.833 321.059 434.833C320.464 435.164 319.789 435.324 319.108 435.296C318.428 435.268 317.768 435.052 317.203 434.672C317.203 434.672 313.471 414.481 313.471 411.414C313.471 409.379 313.823 382.58 313.823 382.58L333.223 387.531Z" fill="#19D3DA"/>
<path d="M328.171 346.903C328.171 346.903 327.934 351.484 328.038 351.891C328.143 352.298 330.147 353.643 330.735 354.116C331.324 354.589 327.554 358.3 325.721 359.142C323.889 359.985 318.124 357.77 317.991 354.93C317.858 352.09 318.941 349.705 319.891 349.582C320.84 349.459 328.171 346.903 328.171 346.903Z" fill="#FFCEA9"/>
<path d="M315.579 355.403C315.304 353.387 316.643 351.465 315.351 349.856C310.812 354.286 311.382 366.024 310.356 373.521C306.985 377.033 300.215 380.488 298.306 381.35C297.954 381.501 297.66 381.672 297.726 382.041C297.983 383.291 298.522 384.466 299.303 385.477C303.785 383.584 307.014 382.448 312.598 377.147C313.132 376.563 313.609 375.929 314.022 375.254C315.636 370.521 316.035 358.896 315.579 355.403Z" fill="#FFCEA9"/>
<path d="M328.684 352.677C328.684 352.677 325.351 357.637 320.688 358.101C319.226 356.662 319.093 351.532 321.125 349.885C321.125 349.885 319.226 348.389 317.972 348.673C316.607 349.508 315.594 350.81 315.124 352.336C313.938 355.742 313.382 359.334 313.481 362.938C313.557 367.804 313.481 382.666 313.481 382.666C313.481 382.666 314.136 385.808 318.352 388.147C322.569 390.485 325.683 390.712 328.542 390.04C330.897 389.491 332.844 388.658 333.66 386.954C333.451 383.546 331.923 374.648 332.492 370.369C333.062 366.091 333.974 362.882 334.202 359.417C334.43 355.952 333.746 356.019 332.008 354.788C330.953 354.005 329.842 353.3 328.684 352.677Z" fill="#F4F4F4"/>
<path d="M317.764 340.068C318.314 336.509 320.888 333.811 324.563 334.019C325.494 334.07 326.406 334.304 327.247 334.706C328.087 335.109 328.84 335.672 329.462 336.365C330.084 337.058 330.563 337.866 330.871 338.744C331.179 339.621 331.31 340.551 331.258 341.479C331.199 342.558 330.889 343.608 330.353 344.548C329.818 345.487 329.071 346.29 328.172 346.893C328.04 347.433 327.849 347.957 327.602 348.455C326.301 349.97 322.36 350.907 321.23 350.746C320.556 350.686 319.916 350.426 319.393 349.999C318.869 349.572 318.487 348.998 318.295 348.351C317.08 345.559 317.46 341.829 317.764 340.068Z" fill="#FFCEA9"/>
<path d="M328.171 346.893L327.83 343.798C327.83 343.798 330.375 337.229 324.363 338.488C320.394 339.321 319.397 339.68 318.191 337.03C316.985 334.379 321.239 331.984 326.301 332.647C328.043 332.829 329.653 333.657 330.812 334.967C331.971 336.276 332.594 337.972 332.559 339.718C332.426 341.668 331.903 345.625 328.171 346.893Z" fill="#3A2C6D"/>
<path d="M335.218 357.382C333.48 356.89 334.809 357.297 333.48 356.89C328.941 361.32 329.501 368.921 328.475 376.437C325.968 380.564 316.671 386.159 316.671 386.159C316.558 386.963 316.833 387.2 317.84 388.809C323.017 386.835 327.726 383.808 331.666 379.92C331.894 379.712 332.217 379.655 332.312 379.371C333.898 374.582 335.674 360.875 335.218 357.382Z" fill="#FFCEA9"/>
<path d="M293.833 366.64L300.594 389.68L315.418 395.577L310.015 373.143L293.833 366.64Z" fill="#F4F4F4"/>
<path d="M318.998 386.329C318.78 385.543 318.21 385.733 317.564 385.931C316.869 386.215 316.104 386.281 315.371 386.121C314.797 385.845 314.266 385.487 313.794 385.061C313.508 384.887 313.18 384.792 312.845 384.786C312.845 384.985 313.186 386.149 313.186 386.149C313.186 386.149 309.939 386.149 309.606 386.149C309.495 386.126 309.378 386.138 309.274 386.185C309.17 386.231 309.083 386.31 309.026 386.408C308.969 386.507 308.945 386.621 308.957 386.735C308.969 386.848 309.017 386.954 309.094 387.039C309.021 387.044 308.948 387.044 308.875 387.039C308.21 386.888 307.926 387.91 308.59 388.061C308.769 388.096 308.95 388.121 309.132 388.137C308.695 388.307 308.59 389.027 309.132 389.084H309.293C309.374 389.106 309.459 389.106 309.54 389.084H309.635C309.621 389.161 309.623 389.24 309.641 389.316C309.659 389.393 309.691 389.465 309.738 389.528C309.784 389.592 309.842 389.645 309.909 389.686C309.976 389.727 310.051 389.754 310.129 389.765C311.715 389.973 314.051 390.608 315.485 389.301C316.47 389.198 317.432 388.935 318.333 388.525C319.236 388.156 319.264 387.266 318.998 386.329Z" fill="#FFCEA9"/>
<path d="M302.778 384.445H302.55C302.627 384.374 302.682 384.282 302.708 384.18C302.734 384.079 302.73 383.972 302.697 383.872C302.664 383.773 302.604 383.684 302.522 383.618C302.44 383.552 302.342 383.511 302.237 383.499C301.905 383.499 298.562 382.808 298.562 382.808L298.154 381.435C298.154 381.359 297.574 381.71 297.555 381.719C297.273 381.904 297.037 382.15 296.863 382.438C296.688 382.727 296.581 383.05 296.549 383.385C296.527 383.856 296.6 384.326 296.763 384.768C296.926 385.21 297.176 385.615 297.498 385.96C298.106 386.553 298.918 386.892 299.768 386.906C300.167 386.906 300.556 386.906 300.908 386.982C300.987 386.987 301.067 386.976 301.142 386.95C301.218 386.923 301.287 386.881 301.345 386.827C301.404 386.773 301.451 386.708 301.483 386.635C301.516 386.563 301.533 386.484 301.534 386.405H301.639C301.717 386.423 301.798 386.423 301.876 386.405H302.047C302.617 386.405 302.664 385.704 302.275 385.458C302.455 385.458 302.636 385.458 302.826 385.458C303.519 385.496 303.453 384.436 302.778 384.445Z" fill="#FFCEA9"/>
<path d="M313.69 358.404C312.771 358.367 311.901 357.981 311.259 357.325C311.391 355.621 313.576 349.156 317.972 348.673C316.777 349.513 315.829 350.657 315.228 351.986C314.55 354.083 314.036 356.229 313.69 358.404Z" fill="#EDEDED"/>
<path d="M336.006 366.952C336.006 366.952 331.628 368.457 328.542 365.93C328.209 365.352 330.327 357.931 330.327 357.931C330.327 357.931 332.169 354.144 335.075 355.64C337.981 357.136 336.006 366.952 336.006 366.952Z" fill="#EDEDED"/>
<path d="M80.7654 364.122C80.7654 364.122 81.3731 373.181 82.5602 374.487C83.7472 375.793 87.7831 376.683 87.7831 376.683L90.8979 381.785C90.8979 381.785 88.049 365.57 87.4412 365.182C86.8335 364.794 80.7654 364.122 80.7654 364.122Z" fill="#FFCEA9"/>
<path d="M86.7386 354.031C85.9835 353.679 85.1249 353.618 84.3274 353.86C83.5299 354.101 82.8499 354.627 82.4178 355.337C81.2688 357.23 80.0818 363.705 79.9773 364.803C79.9773 364.803 81.5822 367.018 83.9847 366.696L86.7386 354.031Z" fill="#EDEDED"/>
<path d="M95.912 444.536C97.6045 444.999 99.4119 444.782 100.945 443.93C102.151 443.93 108.732 441.156 109.625 443.513C110.413 445.577 107.564 447.489 106.045 447.858C102.721 448.663 100.261 450.31 98.9223 450.594C97.9727 450.802 96.6432 450.935 95.8551 450.159C94.9624 449.221 95.0194 445.766 95.912 444.536Z" fill="#38226D"/>
<path d="M98.9604 450.017C100.299 449.742 102.759 448.123 106.083 447.281C107.355 446.978 109.549 445.587 109.777 443.93C110.071 445.823 107.498 447.518 106.083 447.858C102.759 448.663 100.299 450.31 98.9604 450.594C98.0108 450.802 96.6813 450.935 95.8931 450.159C95.6825 449.935 95.5322 449.661 95.4563 449.363C95.9492 449.736 96.5226 449.99 97.1309 450.103C97.7392 450.217 98.3656 450.187 98.9604 450.017Z" fill="#9C73FF"/>
<path d="M85.7035 441.346C87.3955 441.814 89.2049 441.597 90.7365 440.74C91.952 440.74 98.5234 437.976 99.4255 440.333C100.204 442.396 97.3553 444.309 95.8359 444.678C92.5123 445.473 90.0527 447.13 88.7233 447.404C87.7262 447.612 86.4347 447.754 85.6465 446.978C84.6969 446.041 84.7823 442.586 85.7035 441.346Z" fill="#38226D"/>
<path d="M88.7233 446.798C90.0528 446.514 92.5218 444.905 95.836 444.063C97.1085 443.76 99.3116 442.368 99.5301 440.702C99.8244 442.595 97.251 444.29 95.836 444.64C92.5123 445.435 90.0528 447.092 88.7233 447.366C87.7262 447.574 86.4347 447.716 85.6465 446.94C85.4412 446.712 85.2916 446.44 85.2097 446.145C85.7044 446.518 86.2794 446.771 86.8892 446.885C87.499 446.998 88.127 446.969 88.7233 446.798Z" fill="#9C73FF"/>
<path d="M84.9817 422.906C85.2645 420.472 85.7732 418.07 86.5011 415.731C86.5011 415.731 86.0453 409.53 85.8174 403.652C85.561 397.026 83.2439 391.119 85.0672 385.799L105.408 390.314C105.408 390.314 104.459 416.952 104.145 420.17C103.987 422.677 103.67 425.172 103.196 427.639C102.246 432.798 101.23 444.347 101.23 444.347C99.0456 445.615 95.8454 444.574 95.8454 444.574C95.8454 444.574 95.8454 430.119 95.9689 426.399C96.1398 421.855 96.2822 422.205 96.2822 422.205L95.5985 410.893L95.1522 405.271C95.1522 405.271 94.5824 409.398 94.2026 413.08C93.8797 416.299 93.101 419.205 92.2273 425.197C91.4771 430.384 90.6985 440.977 90.6985 440.977C88.5143 442.236 85.5705 441.365 85.5705 441.365C85.5705 441.365 84.3929 427.412 84.9817 422.906Z" fill="#19D3DA"/>
<path d="M87.8401 354.163C89.407 354.239 90.575 354.646 90.7745 354.163C90.9437 353.354 91.0642 352.535 91.1353 351.712C90.9549 351.257 90.7935 350.765 90.7935 350.765C88.8182 349.563 88.201 347.433 87.9446 344.953C87.5078 340.722 89.8438 337.02 94.0412 336.575C98.0391 336.159 100.973 338.961 101.762 342.795C102.179 344.688 103.025 348.275 101.885 351.39C101.249 353.141 100.432 354.523 99.6155 354.788C98.8234 354.773 98.0333 354.704 97.2509 354.58C97.2509 354.58 97.042 355.754 96.8996 356.473C96.7571 357.192 96.8046 357.618 98.3145 358.546C99.8244 359.474 96.0354 361.386 93.5664 361.187C91.0973 360.988 88.3054 359.512 87.5457 357.921C86.6816 356.208 86.7576 354.107 87.8401 354.163Z" fill="#FFCEA9"/>
<path d="M90.1099 354.4C89.6731 355.479 90.7841 356.804 93.7375 357.723C96.6908 358.641 96.9472 357.458 96.9472 357.458C98.8994 358.337 100.801 359.323 102.645 360.411C104.411 361.642 105.199 365.22 105.437 371.25C105.712 378.226 105.741 388.582 105.503 390.371C105.503 390.371 102.199 393.665 97.9063 393.315C93.614 392.965 86.5108 389.226 84.811 386.339C84.811 380.223 85.5802 379.23 84.5831 375.699C82.304 367.624 81.1075 364.339 82.2185 358.963C83.1682 354.542 84.4027 353.993 86.1595 354.031C87.482 354.083 88.8007 354.207 90.1099 354.4Z" fill="#F4F4F4"/>
<path d="M101.828 395.748L99.7104 371.439L104.259 369.034L106.035 370.521L105.408 392.349V392.955V393.731C105.408 393.731 105.503 395.568 102.028 397.764C102.028 397.764 101.971 397.187 101.923 396.647L101.838 395.7L101.828 395.748Z" fill="#FFCEA9"/>
<path d="M101.287 358.906C103.632 358.906 105.085 360.099 105.703 363.705C106.32 367.312 106.652 370.265 106.652 370.265C105.572 371.461 104.073 372.199 102.464 372.329C99.6155 372.641 98.7988 371.202 98.7988 371.202C98.7988 371.202 98.4949 367.463 98.343 364.917C98.191 362.37 98.381 358.963 101.287 358.906Z" fill="#EDEDED"/>
<path d="M101.61 342.255C101.61 342.255 105.275 336.698 97.327 335.562C91.6292 334.748 87.9067 338.402 87.4794 342.406C87.071 346.193 89.4261 350.159 91.1259 351.731C92.7951 352.153 94.5625 351.941 96.0829 351.134C96.1761 350.099 96.2109 349.059 96.1874 348.02C96.1874 348.02 93.405 342.151 101.61 342.255Z" fill="#3A2C6D"/>
<path d="M21.5184 223.333C20.6827 221.989 14.3013 221.108 12.2026 226.495C11.4049 228.539 11.5284 233.764 10.8636 237.04C10.1989 240.315 8.63201 242.18 8.07173 244.84C7.51145 247.5 8.42309 251.968 14.8615 252.753C21.3 253.539 26.257 251.286 27.7575 249.241C29.2579 247.197 29.3053 242.852 27.7575 240.523C26.2096 238.195 24.9845 236.292 25.0225 233.253L21.5184 223.333Z" fill="#3A2C6D"/>
<path d="M29.1534 245.872C29.1534 245.872 30.6633 256.53 27.8144 264.103C24.9656 271.676 25.7443 262.163 25.7443 262.163L26.4375 259.9C26.4375 259.9 27.0073 251.21 26.7698 249.081C26.5324 246.951 26.5894 245.114 26.4375 244.944C26.2855 244.774 26.9978 244.433 27.3016 244.395C27.6055 244.357 29.1534 245.872 29.1534 245.872Z" fill="#FFCEA9"/>
<path d="M17.302 222.396C17.302 222.396 22.1071 221.023 25.013 223.607C25.9738 224.488 26.674 225.615 27.0373 226.865C27.4006 228.115 27.4132 229.441 27.0736 230.697C26.6843 232.212 25.9056 234.276 24.6996 234.389C23.4936 234.503 17.302 222.396 17.302 222.396Z" fill="#3A2C6D"/>
<path d="M15.4692 235.459C15.4692 235.459 15.7826 240.788 15.6876 241.139C15.5926 241.489 13.5794 241.915 13.0192 242.379C12.4589 242.842 15.9345 248.257 17.7008 249.062C19.4671 249.866 24.9274 247.812 25.2978 245.105C25.6492 242.606 23.7404 240.665 22.9997 239.993C22.497 239.958 21.9925 239.958 21.4898 239.993L21.3284 237.399C18.9923 236.652 15.4692 235.459 15.4692 235.459Z" fill="#FFCEA9"/>
<path d="M14.7285 241.697C13.2281 241.934 11.5093 242.729 11.2718 243.59C10.655 246.548 10.8053 249.614 11.7087 252.498C13.0097 255.925 13.8833 258.111 14.6335 259.588C14.6335 259.588 21.1384 262.371 26.3899 259.134C26.3899 259.134 26.7412 255.451 26.7697 253.454C31.6128 249.241 27.4724 244.054 23.3701 240.022C22.8774 239.974 22.3813 239.974 21.8887 240.022C21.8887 240.022 25.5542 244.329 23.0092 246.78C17.5584 245.114 16.4758 242.672 14.7285 241.697Z" fill="#F4F4F4"/>
<path d="M25.4689 228.842C24.9276 225.415 22.4396 222.831 18.8975 223.03C17.0865 223.14 15.393 223.96 14.188 225.312C12.983 226.664 12.3647 228.437 12.4685 230.243C12.531 231.284 12.8344 232.297 13.355 233.202C13.8756 234.107 14.5993 234.879 15.4693 235.459C15.5937 235.976 15.7752 236.477 16.0106 236.955C17.2736 238.412 20.6068 239.34 21.7084 239.349C22.658 239.349 23.4842 238.479 24.3768 237.002C26.2286 233.935 25.7633 230.537 25.4689 228.842Z" fill="#FFCEA9"/>
<path d="M17.796 223.096C15.308 223.579 13.2663 224.279 12.592 226.712C12.1267 228.388 11.519 231.587 12.0982 232.931L12.4591 233.878L15.4694 235.431C15.4694 235.431 16.8749 234.257 16.419 230.839C16.4316 230.376 16.5765 229.926 16.8369 229.543C17.0272 229.218 17.168 228.867 17.2547 228.501C17.6105 227.576 18.3114 226.823 19.2109 226.4C21.452 225.141 24.7377 226.229 25.1936 226.684C24.5598 225.331 23.4791 224.237 22.1324 223.584C20.7857 222.931 19.2548 222.758 17.796 223.096Z" fill="#3A2C6D"/>
<path d="M13.2947 331.151C14.5577 332.174 16.5139 331.464 16.6089 331.558C18.0726 332.82 19.6037 334.002 21.1956 335.099C21.9837 335.714 23.2088 336.537 22.9903 337.721C22.5915 339.832 19.1918 339.179 17.9099 338.535C16.6279 337.891 15.5833 336.812 14.3772 336.064C13.5131 335.534 12.6584 335.25 12.478 334.171C12.44 333.48 13.0573 331.123 13.2947 331.151Z" fill="#38226D"/>
<path d="M12.5446 333.698C12.706 334.739 13.5512 335.023 14.4438 335.591C15.6783 336.348 16.7609 337.484 18.0429 338.099C19.3249 338.715 22.1738 339.283 23.0094 337.778C22.5536 339.813 19.2109 339.179 17.9479 338.535C16.6849 337.891 15.6214 336.812 14.4153 336.064C13.5512 335.534 12.6965 335.25 12.5161 334.171C12.4989 334.013 12.5085 333.853 12.5446 333.698Z" fill="#9C73FF"/>
<path d="M22.1071 329.419C23.2657 330.366 24.956 329.826 25.089 329.911C26.4321 331.06 27.8399 332.131 29.3053 333.12C30.0175 333.679 31.1381 334.436 30.9386 335.515C30.5778 337.408 27.463 336.859 26.295 336.263C25.1269 335.667 24.1583 334.692 23.0473 334.001C22.2591 333.518 21.4804 333.262 21.3569 332.259C21.3955 331.269 21.6516 330.3 22.1071 329.419Z" fill="#38226D"/>
<path d="M21.376 331.833C21.528 332.779 22.3256 333.054 23.0758 333.537C24.2059 334.237 25.203 335.241 26.371 335.837C27.5391 336.433 30.1695 336.926 30.9197 335.544C30.5114 337.437 27.4536 336.822 26.2951 336.235C25.1365 335.648 24.1584 334.663 23.0474 333.972C22.2592 333.489 21.4805 333.234 21.357 332.23C21.3457 332.098 21.3521 331.964 21.376 331.833Z" fill="#9C73FF"/>
<path d="M28.8971 271.023C28.3368 266.697 26.7414 260.411 26.7414 260.411C25.2287 261.113 23.5935 261.515 21.9268 261.595C19.4823 261.588 17.0438 261.354 14.6432 260.894C13.8577 262.256 13.0019 263.577 12.0792 264.851C10.8257 266.583 8.38517 270.379 8.97394 277.005C9.36328 281.341 11.8228 299.724 11.8228 299.724C10.8774 302.819 10.3754 306.031 10.3319 309.266C10.5566 313.109 11.0644 316.931 11.8513 320.701L13.3042 331.113C13.3042 331.113 15.2035 332.505 16.6184 331.521L16.4475 321.297C16.6089 318.798 16.8558 315.106 17.0173 312.778C17.2832 308.944 17.9669 302.848 18.1663 301.333C18.3657 299.819 18.8595 297.149 19.1159 294.167C19.3723 291.186 20.4739 276.04 20.4739 276.04L20.6353 278.88C20.6353 278.88 20.7778 283.49 21.4425 289.169C22.1072 294.849 22.3447 297.367 22.3447 297.367C21.7002 298.505 21.2418 299.739 20.9867 301.021C20.8727 302.242 19.4578 311.954 20.303 316.895L22.0313 329.457C22.4621 329.752 22.957 329.941 23.4753 330.009C23.9937 330.076 24.5207 330.02 25.0131 329.845L26.0292 317.189C26.7129 312.371 28.1564 302.157 28.3748 300.832C28.8652 298.156 29.154 295.447 29.2389 292.729C29.5754 285.493 29.4612 278.244 28.8971 271.023Z" fill="#FFCEA9"/>
<path d="M14.6337 259.55L10.8922 267.038C10.8922 267.038 5.19445 275.358 11.1011 296.752L9.99006 303.378C9.99006 303.378 21.1766 310.534 28.6692 303.378C28.6692 303.378 31.2617 283.613 29.8847 274.497C29.1148 269.255 27.9498 264.078 26.3996 259.01C26.3996 259.01 24.5668 261.027 15.1275 259.692" fill="#19D3DA"/>
<path d="M38.0323 264.87C37.0771 264.909 36.1254 265.01 35.1834 265.173C34.2861 265.454 33.3511 265.597 32.4105 265.599C31.3849 265.599 28.5265 264.179 26.0765 262.466C23.4164 260.474 21.1169 258.044 19.2772 255.281C17.3479 252.333 15.6676 249.23 14.2537 246.004C13.456 243.713 13.475 245.275 12.117 245.237C10.5122 245.237 9.6575 245.786 10.854 248.901C12.0511 252.123 13.7216 255.151 15.8111 257.884C17.7733 260.64 20.1913 263.044 22.9617 264.993C25.4018 266.696 28.0386 268.101 30.8151 269.177C31.6128 269.499 32.1256 269.944 33.5691 270.739C35.0187 271.566 36.648 272.031 38.3172 272.093C39.7036 272.093 40.2164 271.827 40.3114 271.544C40.4064 271.26 40.1879 270.947 39.5517 270.89C38.5397 270.875 37.539 270.676 36.5984 270.303C36.5984 270.303 37.9753 270.502 38.811 270.54C39.5592 270.584 40.3099 270.527 41.0426 270.37C41.7453 270.199 42.1347 269.215 41.4984 269.139C40.8622 269.063 40.3399 269.139 39.1054 269.092C38.4608 269.049 37.8235 268.931 37.2061 268.742C38.0358 268.748 38.8646 268.687 39.6846 268.562C40.3496 268.496 40.982 268.244 41.5079 267.833C41.7833 267.606 41.8308 266.971 41.0236 266.981C40.027 267.155 39.0128 267.205 38.0038 267.132C37.0067 266.99 36.3135 266.754 36.4654 266.621C36.6173 266.489 37.2061 266.621 38.0418 266.318C38.8775 266.015 39.4472 265.286 39.2573 264.86C39.0674 264.434 38.9344 264.709 38.0323 264.87Z" fill="#FFCEA9"/>
<path d="M11.5664 251.854C11.5664 251.854 15.2319 252.043 17.3116 249.762L15.0515 245.029C15.0515 245.029 14.0164 242.426 11.5759 243.07C9.13532 243.713 9.09734 247.168 11.5664 251.854Z" fill="#EDEDED"/>
<path d="M23.3701 240.012C23.3701 240.012 26.3424 239.065 29.4952 245.692L28.3177 246.402C28.3177 246.402 25.2124 241.688 23.3701 240.012Z" fill="#EDEDED"/>
<path d="M74.5931 103.18L22.0409 72.8887L21.8415 72.7751C20.3601 71.9894 18.3563 72.1314 16.1437 73.3998C11.614 76.0125 7.93896 82.3547 7.93896 87.5989C7.93896 90.2968 8.93607 92.1616 10.5219 92.9662L63.7864 123.608L74.5931 103.18Z" fill="#19D3DA"/>
<path d="M75.043 116.744C78.2475 111.212 78.2494 105.233 75.0473 103.39C71.8452 101.547 66.6517 104.538 63.4472 110.071C60.2428 115.604 60.2408 121.583 63.4429 123.425C66.645 125.268 71.8386 122.277 75.043 116.744Z" fill="#86E8EC"/>
<path d="M92.7214 136.065L65.3438 120.314V109.257L92.7214 125.018V136.065Z" fill="#D6D8E5"/>
<path d="M92.7214 125.037L65.3438 109.286L71.6493 105.651L99.0269 121.412L92.7214 125.037Z" fill="#C4C7D6"/>
<path d="M159.722 197.317C176.2 187.833 176.2 157.081 159.721 128.63C143.243 100.179 116.526 84.8025 100.048 94.286C83.5693 103.77 83.5695 134.522 100.048 162.973C116.527 191.424 143.244 206.8 159.722 197.317Z" fill="url(#paint0_linear)"/>
<path d="M135.644 201.466C107.393 185.204 84.3647 145.512 84.3647 112.987C84.3647 80.4615 107.355 67.2375 135.644 83.5002C163.934 99.7629 186.924 139.454 186.924 171.97C186.924 204.486 163.905 217.719 135.644 201.466ZM135.644 102.129C116.31 90.9973 100.584 100.047 100.584 122.302C100.584 144.556 116.31 171.714 135.644 182.884C154.979 194.054 170.705 184.957 170.705 162.712C170.705 140.467 154.979 113.252 135.644 102.129Z" fill="#86E8EC"/>
<path d="M129.89 204.779C101.629 188.517 78.6099 148.825 78.6099 116.3C78.6099 83.7747 101.591 70.5506 129.89 86.8133C158.188 103.076 181.169 142.767 181.169 175.283C181.169 207.799 158.141 221.042 129.89 204.779ZM129.89 105.442C110.555 94.3104 94.8295 103.36 94.8295 125.615C94.8295 147.869 110.555 175.028 129.89 186.197C149.224 197.367 164.95 188.271 164.95 166.025C164.95 143.78 149.224 116.565 129.89 105.442Z" fill="#19D3DA"/>
</g>
<defs>
<linearGradient id="paint0_linear" x1="177.073" y1="172.953" x2="82.8502" y2="118.377" gradientUnits="userSpaceOnUse">
<stop stop-color="white" stop-opacity="0.4"/>
<stop offset="0.89" stop-color="white" stop-opacity="0"/>
</linearGradient>
<clipPath id="clip0">
<rect width="443" height="459" fill="white"/>
</clipPath>
</defs>
</svg>
