<svg width="34" height="40" viewBox="0 0 34 40" fill="none" xmlns="http://www.w3.org/2000/svg">
<path d="M17 20C22.3656 20 26.7143 15.5234 26.7143 10C26.7143 4.47656 22.3656 0 17 0C11.6344 0 7.28571 4.47656 7.28571 10C7.28571 15.5234 11.6344 20 17 20ZM7.89286 33.125C7.89286 34.1641 8.70491 35 9.71429 35C10.7237 35 11.5357 34.1641 11.5357 33.125C11.5357 32.0859 10.7237 31.25 9.71429 31.25C8.70491 31.25 7.89286 32.0859 7.89286 33.125ZM24.2857 22.5469V26.375C27.0558 26.9531 29.1429 29.4844 29.1429 32.5V35.7578C29.1429 36.3516 28.733 36.8672 28.1638 36.9844L25.7201 37.4844C25.3937 37.5547 25.075 37.3359 25.0067 36.9922L24.7714 35.7656C24.7031 35.4297 24.9156 35.0938 25.2496 35.0312L26.7143 34.7266V32.5C26.7143 27.5938 19.4286 27.4141 19.4286 32.6484V34.7344L20.8933 35.0391C21.2196 35.1094 21.4321 35.4375 21.3714 35.7734L21.1362 37C21.0679 37.3359 20.7491 37.5547 20.4228 37.4922L18.0549 37.1641C17.4554 37.0781 17.0076 36.5547 17.0076 35.9219V32.5C17.0076 29.4844 19.0946 26.9609 21.8647 26.375V22.8438C21.6978 22.8984 21.5308 22.9297 21.3638 22.9922C19.9978 23.4844 18.533 23.7578 17.0076 23.7578C15.4821 23.7578 14.0174 23.4844 12.6513 22.9922C12.0897 22.7891 11.5205 22.6641 10.9362 22.5859V28.9609C12.6893 29.5 13.9719 31.1562 13.9719 33.1328C13.9719 35.5469 12.067 37.5078 9.72188 37.5078C7.37679 37.5078 5.47188 35.5469 5.47188 33.1328C5.47188 31.1562 6.75446 29.5 8.50759 28.9609V22.6797C3.6808 23.5156 0 27.7969 0 33V36.5C0 38.4297 1.52545 40 3.4 40H30.6C32.4746 40 34 38.4297 34 36.5V33C34 27.375 29.6893 22.8203 24.2857 22.5469Z" fill="white"/>
</svg>
