<svg width="424" height="277" viewBox="0 0 424 277" fill="none" xmlns="http://www.w3.org/2000/svg">
<path d="M87.8327 192.932L87.5116 193.302L105.104 208.605L105.425 208.235L87.8327 192.932Z" fill="black"/>
<path d="M115.124 86.9009C115.296 103.926 97.61 105.594 97.61 105.594C97.61 105.594 93.6945 107.276 88.1122 109.447C78.0192 113.366 62.463 118.86 54.7774 118.807C52.5022 118.794 50.9148 118.304 50.3593 117.126C46.8935 109.831 60.9285 97.8099 66.7092 67.3734C72.4899 36.9501 98.6021 49.3551 98.6021 49.3551C108.682 44.7346 114.965 69.8623 115.124 86.9009Z" fill="#1A117D"/>
<path d="M102.214 95.6916C97.4382 95.9035 91.8162 103.503 88.1124 109.447C78.0193 113.366 62.4631 118.86 54.7776 118.807C58.6666 114.16 67.6353 102.708 68.5216 94.9503C69.6592 85.0078 83.1386 47.8855 98.6684 57.4838C98.6684 57.4838 100.494 55.6833 102.385 55.9216C104.29 56.1467 107.399 57.1926 108.007 64.1166C108.616 71.0406 109.992 77.9646 110.693 79.6989C111.381 81.42 110.084 95.3474 102.214 95.6916Z" fill="#070455"/>
<path d="M123.696 205.377C121.513 197.103 121.275 180.077 121.513 168.467C121.751 156.856 121.063 139.725 119.212 129.835C117.373 119.946 106.341 110.625 103.602 109.447C100.864 108.255 94.2369 101.014 94.2369 101.014L95.0174 115.299C95.5333 115.153 96.0359 114.954 96.4989 114.676L96.7767 132.787L95.5597 132.549L85.7313 114.398C85.7842 114.412 86.2604 114.597 87.0144 114.822L79.1834 100.669C79.1834 100.669 71.6963 104.853 70.7438 105.674C69.8046 106.495 70.4925 107.488 70.4925 107.488C60.5582 108.083 50.1609 118.728 42.1183 132.218C34.0756 145.709 27.3425 172.346 26.6282 188.55C25.9138 204.768 80.5591 224.057 80.5591 224.057C78.7865 217.08 85.2815 215.187 85.2815 215.187L90.3611 229.869H129.305C129.318 229.869 125.879 213.651 123.696 205.377ZM58.4682 187.848C55.2141 182.804 47.6079 181.348 47.6079 181.348L55.5051 162.893C62.1191 176.701 58.4682 187.848 58.4682 187.848Z" fill="white"/>
<path d="M117.161 210.765L76.5509 256.903L43.6659 228.744L44.6183 227.671L85.2947 182.063L116.275 209.971L117.161 210.765Z" fill="#2BC1C5"/>
<path d="M117.161 210.765L76.5509 256.903L43.6659 228.744L44.6183 227.671L76.4451 254.454L116.275 209.971L117.161 210.765Z" fill="#11829A"/>
<path d="M80.8236 224.428C80.8236 224.428 55.0818 214.631 52.5817 212.116C50.0815 209.613 67.0664 196.944 67.0664 196.944" fill="white"/>
<path d="M66.0214 195.779L85.0302 214.935C85.0302 214.935 79.223 215.836 80.7046 223.475C82.1861 231.114 80.7046 223.475 80.7046 223.475C80.7046 223.475 57.5157 215.836 52.5684 212.116C47.6344 208.395 66.0214 195.779 66.0214 195.779Z" fill="white"/>
<path d="M80.7046 223.488C80.7046 223.488 84.3027 229.022 89.0119 229.869C93.7211 230.73 94.237 237.018 93.6153 238.766C93.6153 238.766 94.1179 239.044 95.0174 237.813C95.0174 237.813 95.3481 239.719 96.6974 237.64C96.6974 237.64 97.253 238.369 97.9276 236.568C98.6022 234.768 98.4832 231.961 98.4832 231.961C98.4832 231.961 99.6076 232.292 99.8854 233.536C100.163 234.768 100.163 236.171 100.891 236.74C101.618 237.296 101.288 231.577 101.288 231.577L85.017 214.949C85.0302 214.949 78.9056 215.28 80.7046 223.488Z" fill="#FEB7C5"/>
<path d="M96.446 133.396L81.9877 123.838V118.33L78.6939 122.554L70.0957 107.739C69.9634 107.501 70.0428 107.21 70.2676 107.077C70.5058 106.945 70.7968 107.024 70.9291 107.249L78.813 120.833L82.9666 115.524V123.335L96.0227 131.967L100.414 121.587L97.0942 116.662H101.539L99.4356 106.799C99.3827 106.534 99.5414 106.283 99.806 106.23C100.071 106.177 100.322 106.336 100.375 106.601L102.716 117.629H98.8932L101.486 121.481L96.446 133.396Z" fill="#79A1BC"/>
<path d="M102.134 193.594C101.883 193.594 101.671 193.396 101.645 193.131C101.592 192.284 100.481 172.187 101.658 167.235C102.928 161.873 103.801 156.353 100.6 147.853C97.253 138.996 95.7714 132.84 95.745 132.774C95.6788 132.509 95.8376 132.258 96.1021 132.192C96.3667 132.125 96.618 132.284 96.6842 132.549C96.6974 132.615 98.1657 138.705 101.499 147.509C104.806 156.26 103.907 161.94 102.597 167.447C101.46 172.266 102.597 192.866 102.61 193.065C102.624 193.329 102.425 193.568 102.147 193.581C102.161 193.594 102.147 193.594 102.134 193.594Z" fill="#79A1BC"/>
<path d="M115.905 229.975C115.64 229.975 115.428 229.763 115.415 229.498C115.415 229.075 114.939 187.385 115.177 178.369L115.19 177.959C115.362 171.419 115.362 171.419 116.526 167.765C116.897 166.613 117.399 165.038 118.061 162.761C120.376 154.804 117.637 150.779 114.992 146.874C114.582 146.265 114.185 145.682 113.814 145.086C110.97 140.559 113.656 133.33 113.775 133.026C113.867 132.774 114.145 132.655 114.396 132.748C114.648 132.84 114.767 133.118 114.674 133.37C114.648 133.436 112.042 140.453 114.635 144.557C115.005 145.139 115.389 145.709 115.799 146.304C118.444 150.197 121.447 154.619 119 163.012C118.325 165.316 117.823 166.891 117.452 168.043C116.328 171.551 116.328 171.551 116.156 177.959L116.143 178.369C115.905 187.359 116.381 229.035 116.381 229.459C116.394 229.75 116.182 229.975 115.905 229.975C115.918 229.975 115.905 229.975 115.905 229.975Z" fill="#79A1BC"/>
<path d="M85.2948 215.677C85.1757 215.677 85.0435 215.624 84.9509 215.531L58.5476 189.106C58.3624 188.921 58.3624 188.603 58.5476 188.418C58.7328 188.232 59.0503 188.232 59.2354 188.418L85.6387 214.843C85.8239 215.028 85.8239 215.346 85.6387 215.531C85.5329 215.624 85.4138 215.677 85.2948 215.677Z" fill="#79A1BC"/>
<path d="M55.505 163.383C55.4389 163.383 55.3727 163.37 55.3198 163.343C55.0685 163.237 54.9627 162.959 55.0685 162.708L65.5319 137.937C65.6377 137.686 65.9155 137.58 66.1669 137.686C66.4182 137.792 66.524 138.07 66.4182 138.321L55.9548 163.091C55.8754 163.264 55.6902 163.383 55.505 163.383Z" fill="#79A1BC"/>
<path d="M88.8929 139.817L79.2099 139.883L78.7601 137.249L88.4299 137.169L88.8929 139.817Z" fill="#4C90D1"/>
<path d="M107.584 88.1454C105.666 98.1408 94.3163 96.3403 93.8004 96.2477H93.7872L94.2369 101L94.6735 105.528L95.8508 130.788L79.1834 100.656C81.1411 83.6971 77.3711 78.4015 77.3711 78.4015C72.6487 78.2029 69.4872 71.4775 72.3048 69.0018C75.1223 66.5393 78.5484 71.2921 78.5484 71.2921C78.5484 71.2921 84.7392 65.3478 89.3955 59.9198C94.0385 54.4918 99.1181 58.7945 99.1181 58.7945C105.997 52.8899 107.068 69.1606 107.068 69.1606C107.068 69.1606 109.555 77.9116 107.584 88.1454Z" fill="#FEB7C5"/>
<path d="M94.237 101C94.237 101 82.8872 96.7772 82.4772 87.3511C82.4772 87.3511 84.9641 93.5866 93.7872 96.2609L94.237 101Z" fill="#F59DAB"/>
<path d="M96.3535 131.662L95.2688 131.477L85.4403 114.385C85.4932 114.398 86.2605 114.584 87.0145 114.809L95.8508 130.788L95.1233 115.219C95.6392 115.074 96.0228 114.915 96.4858 114.65L96.3535 131.662Z" fill="white"/>
<path d="M95.8639 130.802L87.0276 114.822C88.8398 115.352 92.332 116.04 95.1364 115.246L95.8639 130.802Z" fill="#1994B5"/>
<path d="M93.9195 78.5603C94.5916 78.5603 95.1365 77.9439 95.1365 77.1835C95.1365 76.4231 94.5916 75.8066 93.9195 75.8066C93.2474 75.8066 92.7025 76.4231 92.7025 77.1835C92.7025 77.9439 93.2474 78.5603 93.9195 78.5603Z" fill="#070455"/>
<path d="M104.753 77.6336C105.301 77.6336 105.745 77.0172 105.745 76.2568C105.745 75.4963 105.301 74.8799 104.753 74.8799C104.205 74.8799 103.761 75.4963 103.761 76.2568C103.761 77.0172 104.205 77.6336 104.753 77.6336Z" fill="#070455"/>
<path d="M90.93 70.842C90.8241 70.842 90.7183 70.8023 90.6257 70.7361C90.4141 70.564 90.3744 70.2595 90.5463 70.0609C90.5992 69.9947 91.8824 68.3928 93.8005 68.2604C94.9513 68.1942 96.0625 68.6708 97.1075 69.677C97.2927 69.8623 97.3059 70.1668 97.1207 70.3654C96.9355 70.5507 96.6313 70.564 96.4328 70.3786C95.5995 69.5578 94.7396 69.1739 93.8666 69.2268C92.385 69.3195 91.3268 70.6434 91.3136 70.6566C91.221 70.789 91.0755 70.842 90.93 70.842Z" fill="black"/>
<path d="M102.213 70.8552C102.134 70.8552 102.068 70.842 101.989 70.8023C101.75 70.6831 101.658 70.3919 101.777 70.1536C101.817 70.0609 102.928 67.9162 104.714 67.6646C105.653 67.5322 106.565 67.9294 107.425 68.8561C107.61 69.0547 107.597 69.3592 107.399 69.5446C107.2 69.7299 106.896 69.7167 106.711 69.5181C106.076 68.8429 105.454 68.5384 104.846 68.6178C103.563 68.8032 102.65 70.564 102.637 70.5772C102.557 70.7493 102.385 70.8552 102.213 70.8552Z" fill="black"/>
<path d="M99.9118 84.3193C99.7266 84.3193 99.5811 84.1869 99.5546 84.0016C99.5282 83.803 99.6737 83.6176 99.8721 83.5912C100.613 83.4985 102.888 83.194 103.206 82.2673C103.404 81.698 102.809 80.9434 102.293 80.4006C99.3562 77.3953 100.52 73.2647 100.56 73.0926C100.613 72.894 100.811 72.7881 101.01 72.8411C101.208 72.894 101.314 73.0926 101.261 73.2912C101.248 73.3309 100.176 77.1967 102.809 79.8975C103.801 80.9036 104.145 81.7642 103.893 82.5056C103.483 83.6971 101.579 84.1075 99.9779 84.3193C99.9515 84.3061 99.9382 84.3193 99.9118 84.3193Z" fill="#F59DAB"/>
<path d="M99.462 86.6361C95.8507 86.5699 93.8533 86.1066 93.8533 86.1066C93.8533 86.1066 96.0491 90.171 99.462 89.8532C102.875 89.5222 103.602 86.5037 103.602 86.5037L99.462 86.6361Z" fill="white"/>
<path d="M92.4644 81.8833C92.4115 81.8833 92.3586 81.8833 92.3056 81.8833C86.0752 81.7907 84.2365 75.9125 84.2233 75.8463L84.1836 75.714L84.2365 75.5948C84.263 75.5286 84.9508 74.0061 87.57 73.8605C90.004 73.7281 95.7846 73.7943 96.5386 73.8605C97.4382 73.9399 99.1578 74.6151 99.0917 75.8199C99.0652 76.2038 99.0917 76.4553 99.1049 76.6936C99.1313 77.0114 99.1578 77.3291 99.0917 77.8719C98.9462 78.9708 97.1074 81.8833 92.4644 81.8833ZM92.3189 81.1552C96.909 81.2214 98.298 78.3353 98.3641 77.7925C98.4303 77.3291 98.4038 77.0643 98.3773 76.7731C98.3509 76.5215 98.3377 76.2303 98.3641 75.7934C98.4038 75.2109 97.1471 74.6681 96.4725 74.6019C95.7317 74.5357 90.0172 74.4695 87.6097 74.6019C85.8371 74.6945 85.1625 75.4889 84.9641 75.7802C85.2683 76.6539 87.0805 81.0758 92.3189 81.1552Z" fill="#070455"/>
<path d="M106.129 80.9698C104.793 80.9698 103.602 80.3344 102.676 79.1164C101.605 77.6998 101.102 75.7007 101.42 74.9858C101.486 74.7475 101.79 73.7678 102.875 73.4236C103.642 73.1853 110.428 72.1659 111.129 72.4836C111.83 72.8014 112.002 74.0723 111.817 74.774C111.804 74.8402 111.791 74.9461 111.764 75.0917C111.592 76.2965 111.05 79.9504 107.161 80.8507C106.804 80.9301 106.46 80.9698 106.129 80.9698ZM110.627 73.1323C109.436 73.1323 104.039 73.8208 103.087 74.1253C102.293 74.3768 102.121 75.1579 102.121 75.1844L102.081 75.2903C101.936 75.5683 102.187 77.2894 103.258 78.6927C103.946 79.593 105.15 80.5727 106.976 80.149C110.388 79.3547 110.851 76.1773 111.023 74.9858C111.05 74.8005 111.076 74.6681 111.09 74.5886C111.235 74.0723 111.037 73.2515 110.812 73.1456C110.785 73.1456 110.719 73.1323 110.627 73.1323Z" fill="#070455"/>
<path d="M101.75 75.5683H98.7212V76.0582H101.75V75.5683Z" fill="black"/>
<path d="M78.2616 69.8318L77.787 70.3837L84.3346 76.0229L84.8091 75.471L78.2616 69.8318Z" fill="#070455"/>
<path d="M296.534 36.1028C293.267 37.1884 294.47 40.5908 294.47 40.5908C294.47 40.5908 289.88 39.6773 288.729 41.3984C287.579 43.1195 288.729 46.7999 288.729 46.7999C288.729 46.7999 286.163 46.3763 286.084 47.8723C286.018 49.3683 288.214 50.9305 287.645 52.5721C287.076 54.2138 285.29 53.9225 286.084 56.4777C286.864 59.0328 287.936 63.0972 287.936 63.0972L320.001 68.0883C320.001 68.0883 323.612 61.8792 323.903 60.1713C324.128 58.7945 323.334 56.2658 323.123 55.2597C322.911 54.2535 322.62 53.4062 323.903 52.0558C325.186 50.7054 323.837 48.7858 322.554 47.8591C321.271 46.9323 321.138 46.0056 321.919 44.589C322.699 43.1724 321.284 40.8159 319.141 40.7497C317.011 40.6835 319.207 37.1222 317.646 36.4073C316.085 35.6924 311.813 36.9104 311.813 36.9104C311.813 36.9104 309.392 33.1373 306.415 33.5742C303.426 33.9978 301.508 37.4797 301.508 37.4797C301.508 37.4797 299.815 35.0172 296.534 36.1028Z" fill="#0A0134"/>
<path d="M319.048 93.8911L321.324 96.6581L311.231 106.693L291.626 110.387L292.896 100.934L296.164 96.2344C296.164 96.2344 296.336 95.7049 296.561 94.9105C296.984 93.388 297.606 90.9123 297.5 89.4031C297.5 89.4031 282.367 89.1251 284.139 75.9655C285.925 62.8059 287.632 62.9515 288.333 57.1926C289.047 51.4336 289.536 47.5148 289.536 47.5148C289.536 47.5148 302.897 52.4927 311.138 48.1503C311.138 48.1503 317.051 51.9896 313.903 58.4635C313.334 60.9524 317.315 59.4564 317.315 59.4564C317.315 59.4564 316.681 65.0698 315.675 66.1421C314.683 67.2145 316.813 66.7114 317.871 64.2225C318.929 61.7335 321.218 60.873 323.347 61.8792C325.477 62.8721 322.21 71.2656 317.659 71.0538C317.699 71.0538 315.927 89.6149 319.048 93.8911Z" fill="#B76B78"/>
<path d="M316.284 74.8402C316.204 75.3697 313.479 92.4746 296.799 94.9105C297.222 93.388 297.844 90.9123 297.738 89.4031C297.738 89.4031 310.728 90.2504 316.284 74.8402Z" fill="#A4465F"/>
<path d="M295.568 97.929C295.568 97.929 292.05 107.541 295.568 107.752C299.087 107.964 315.741 102.192 319.802 95.9961C319.802 95.9961 318.995 92.9512 318.241 92.7393C317.501 92.5275 352.899 101.557 377.45 135.21C377.45 135.21 377.45 137.673 376.061 138.838C374.672 140.016 347.767 159.358 347.767 159.358C347.767 159.358 346.801 190.231 346.907 194.402C347.013 198.572 346.907 230.306 346.907 230.306H268.663C268.663 230.306 269.734 197.076 269.522 189.172C269.311 181.269 269.311 150.157 269.311 150.157L245.5 138.745C245.5 138.745 244.534 138.427 247.736 134.892C250.937 131.371 263.636 116.093 266.308 113.313C268.98 110.533 283.015 98.538 296.785 94.9105L295.568 97.929Z" fill="#2CC3C9"/>
<path d="M268.305 193.568C266.837 194.667 268.61 196.189 268.61 196.189C268.61 196.189 265.924 196.904 266.639 199.472C266.639 199.472 265.263 201.14 266.162 203.351C266.162 203.351 264.72 205.443 265.858 206.807C266.996 208.184 268.001 210.62 274.205 210.62C274.205 210.62 276.348 210.5 276.771 208.885C276.771 208.885 278.319 206.555 277.247 205.072C276.176 203.576 270.991 199.353 270.991 199.353L277.142 202.398C277.803 202.729 278.597 202.411 278.861 201.723C279.06 201.193 278.888 200.611 278.438 200.267L270.858 194.574C270.872 194.574 269.496 192.667 268.305 193.568Z" fill="#B56975"/>
<path d="M373.601 135.634C373.601 135.634 375.704 134.826 377.45 135.21C377.45 135.21 377.173 138.123 376.061 138.838L373.601 135.634Z" fill="#1A687F"/>
<path d="M268.186 207.773C268.186 207.773 242.603 199.419 238.992 188.908C236.254 180.951 242.167 155.585 245.196 143.723C246.162 139.923 246.849 137.5 246.849 137.5L270.647 146.371L270.594 149.363L270.514 153.93C270.514 153.93 267.908 166.256 265.435 172.16C265.435 172.16 263.808 190.999 268.61 196.189C273.411 201.392 268.186 207.773 268.186 207.773Z" fill="#B66A76"/>
<path d="M270.633 146.371L270.581 149.363C263.173 147.496 252.246 145.179 245.196 143.723C246.162 139.923 246.849 137.5 246.849 137.5L270.633 146.371Z" fill="#A44761"/>
<path d="M276.679 208.329C273.808 207.244 268.253 201.842 268.014 201.604L268.358 201.26C268.411 201.313 274.073 206.82 276.851 207.879L276.679 208.329Z" fill="#A4465F"/>
<path d="M275.554 210.474C271.612 209.733 267.644 205.655 267.485 205.483L267.829 205.152C267.869 205.192 271.851 209.296 275.647 210.011L275.554 210.474Z" fill="#A4465F"/>
<path d="M270.66 144.65C270.462 144.65 270.303 144.491 270.303 144.292C270.29 143.935 270.29 143.59 270.29 143.233C270.29 142.77 270.303 142.306 270.316 141.843C270.329 141.644 270.462 141.485 270.686 141.485C270.885 141.499 271.044 141.658 271.044 141.856C271.03 142.306 271.017 142.77 271.017 143.22C271.017 143.564 271.017 143.908 271.03 144.252C271.017 144.477 270.858 144.636 270.66 144.65ZM270.819 139.791C270.805 139.791 270.792 139.791 270.779 139.791C270.581 139.778 270.435 139.592 270.448 139.394C270.514 138.599 270.62 137.778 270.726 136.958C270.753 136.759 270.938 136.613 271.136 136.653C271.335 136.68 271.467 136.865 271.44 137.064C271.321 137.871 271.229 138.665 271.163 139.46C271.163 139.645 271.004 139.791 270.819 139.791ZM271.493 134.985C271.467 134.985 271.454 134.985 271.427 134.985C271.229 134.945 271.096 134.76 271.136 134.561C271.282 133.767 271.454 132.973 271.639 132.178C271.679 131.98 271.877 131.861 272.075 131.9C272.274 131.94 272.393 132.139 272.353 132.337C272.168 133.118 272.009 133.913 271.85 134.694C271.811 134.866 271.665 134.985 271.493 134.985ZM272.578 130.259C272.552 130.259 272.512 130.259 272.485 130.245C272.287 130.193 272.181 129.994 272.234 129.795C272.446 129.027 272.671 128.233 272.922 127.452C272.988 127.267 273.187 127.148 273.372 127.214C273.557 127.267 273.676 127.479 273.61 127.664C273.372 128.432 273.147 129.213 272.935 129.981C272.895 130.153 272.75 130.259 272.578 130.259ZM274.02 125.625C273.98 125.625 273.94 125.612 273.901 125.599C273.716 125.532 273.61 125.321 273.676 125.135C273.941 124.381 274.218 123.599 274.509 122.845C274.575 122.66 274.787 122.567 274.972 122.633C275.157 122.699 275.25 122.911 275.184 123.096C274.893 123.851 274.615 124.619 274.364 125.374C274.311 125.532 274.165 125.625 274.02 125.625ZM275.74 121.084C275.687 121.084 275.647 121.071 275.594 121.058C275.409 120.978 275.316 120.766 275.396 120.581C275.713 119.826 276.031 119.072 276.361 118.344C276.441 118.158 276.652 118.079 276.837 118.158C277.023 118.238 277.102 118.45 277.023 118.635C276.705 119.363 276.388 120.104 276.07 120.859C276.017 121.005 275.885 121.084 275.74 121.084ZM277.711 116.649C277.658 116.649 277.605 116.636 277.552 116.609C277.367 116.53 277.287 116.305 277.38 116.119C277.737 115.365 278.094 114.637 278.451 113.935C278.544 113.75 278.756 113.683 278.941 113.776C279.126 113.869 279.192 114.081 279.099 114.266C278.742 114.968 278.385 115.696 278.041 116.437C277.975 116.57 277.843 116.649 277.711 116.649ZM279.893 112.307C279.84 112.307 279.774 112.293 279.721 112.267C279.549 112.174 279.47 111.949 279.576 111.777C279.973 111.036 280.356 110.321 280.74 109.632C280.832 109.46 281.057 109.394 281.229 109.487C281.401 109.579 281.467 109.804 281.375 109.977C280.991 110.652 280.607 111.367 280.211 112.108C280.144 112.24 280.025 112.307 279.893 112.307ZM282.261 108.07C282.195 108.07 282.129 108.057 282.076 108.017C281.904 107.911 281.851 107.686 281.943 107.514C282.393 106.759 282.817 106.058 283.2 105.422C283.306 105.25 283.531 105.197 283.703 105.303C283.875 105.409 283.928 105.634 283.822 105.806C283.438 106.428 283.015 107.13 282.565 107.885C282.512 108.004 282.393 108.07 282.261 108.07ZM284.827 103.94C284.761 103.94 284.695 103.926 284.629 103.873C284.457 103.767 284.417 103.542 284.523 103.37C285.37 102.086 285.899 101.345 285.899 101.345C286.018 101.186 286.243 101.146 286.401 101.265C286.56 101.384 286.6 101.609 286.481 101.768C286.481 101.782 285.952 102.496 285.118 103.767C285.065 103.873 284.946 103.94 284.827 103.94Z" fill="#11829A"/>
<path d="M347.026 108.706C346.907 108.706 346.788 108.639 346.708 108.533C346.602 108.361 346.655 108.136 346.827 108.03C347.489 107.62 347.899 107.435 347.912 107.421C348.097 107.329 348.309 107.408 348.401 107.594C348.494 107.779 348.415 107.991 348.23 108.083C348.23 108.083 347.833 108.269 347.211 108.653C347.158 108.692 347.092 108.706 347.026 108.706Z" fill="#11829A"/>
<path d="M336.986 226.652C336.8 226.652 336.642 226.506 336.628 226.321C336.549 225.527 336.47 224.732 336.404 223.938C336.39 223.739 336.536 223.567 336.734 223.541C336.933 223.528 337.105 223.673 337.131 223.872C337.197 224.653 337.277 225.447 337.356 226.242C337.382 226.44 337.237 226.626 337.025 226.639C337.012 226.652 336.999 226.652 336.986 226.652ZM336.562 221.912C336.377 221.912 336.218 221.767 336.205 221.581C336.139 220.787 336.086 219.993 336.033 219.198C336.02 219 336.165 218.828 336.377 218.815C336.576 218.801 336.747 218.947 336.761 219.159C336.814 219.953 336.867 220.734 336.933 221.529C336.946 221.727 336.8 221.899 336.602 221.926C336.576 221.912 336.576 221.912 336.562 221.912ZM336.245 217.146C336.06 217.146 335.888 217.001 335.888 216.802C335.848 216.008 335.808 215.214 335.769 214.419C335.755 214.221 335.914 214.048 336.113 214.035C336.311 214.022 336.483 214.181 336.496 214.379C336.536 215.174 336.576 215.955 336.615 216.762C336.628 216.961 336.47 217.133 336.271 217.146C336.258 217.146 336.245 217.146 336.245 217.146ZM336.033 212.38C335.835 212.38 335.676 212.221 335.676 212.023C335.65 211.229 335.623 210.421 335.61 209.64C335.61 209.441 335.769 209.269 335.967 209.269C336.152 209.282 336.337 209.428 336.337 209.627C336.351 210.421 336.377 211.202 336.404 212.01C336.404 212.208 336.245 212.38 336.033 212.38ZM335.914 207.614C335.716 207.614 335.557 207.455 335.557 207.257C335.544 206.449 335.544 205.655 335.544 204.874C335.544 204.675 335.702 204.516 335.901 204.503C336.099 204.503 336.258 204.662 336.258 204.861C336.258 205.655 336.258 206.449 336.271 207.244C336.285 207.455 336.126 207.614 335.914 207.614C335.927 207.614 335.914 207.614 335.914 207.614ZM335.914 202.848C335.716 202.848 335.544 202.676 335.557 202.478C335.57 201.67 335.57 200.876 335.597 200.095C335.597 199.896 335.755 199.75 335.967 199.737C336.165 199.737 336.324 199.909 336.324 200.108C336.311 200.889 336.298 201.683 336.285 202.491C336.271 202.689 336.113 202.848 335.914 202.848ZM336.007 198.082C336.007 198.082 335.993 198.082 336.007 198.082C335.795 198.082 335.636 197.91 335.65 197.712C335.676 196.904 335.702 196.11 335.729 195.328C335.742 195.13 335.901 194.958 336.113 194.984C336.311 194.998 336.47 195.156 336.456 195.368C336.43 196.149 336.404 196.944 336.377 197.751C336.364 197.923 336.205 198.082 336.007 198.082ZM336.192 193.303H336.179C335.98 193.29 335.822 193.118 335.835 192.919C335.874 192.111 335.914 191.317 335.967 190.536C335.98 190.337 336.165 190.179 336.351 190.192C336.549 190.205 336.708 190.377 336.695 190.576C336.642 191.357 336.602 192.151 336.562 192.959C336.549 193.157 336.39 193.303 336.192 193.303ZM336.483 188.55C336.47 188.55 336.47 188.55 336.456 188.55C336.258 188.537 336.099 188.365 336.126 188.166C336.179 187.359 336.245 186.564 336.311 185.783C336.324 185.585 336.509 185.439 336.708 185.452C336.906 185.465 337.052 185.638 337.038 185.849C336.972 186.63 336.919 187.425 336.853 188.219C336.84 188.404 336.668 188.55 336.483 188.55ZM336.867 183.784C336.853 183.784 336.84 183.784 336.827 183.784C336.628 183.771 336.483 183.585 336.496 183.387C336.576 182.579 336.642 181.785 336.721 181.004C336.747 180.805 336.919 180.66 337.118 180.673C337.316 180.699 337.462 180.871 337.449 181.07C337.369 181.851 337.29 182.632 337.224 183.44C337.21 183.638 337.052 183.784 336.867 183.784ZM337.343 179.045C337.33 179.045 337.316 179.045 337.303 179.045C337.105 179.018 336.959 178.846 336.986 178.647C337.078 177.84 337.171 177.045 337.263 176.278C337.29 176.079 337.475 175.933 337.673 175.96C337.872 175.986 338.017 176.158 337.991 176.37C337.898 177.138 337.806 177.932 337.713 178.74C337.687 178.899 337.528 179.045 337.343 179.045ZM337.925 174.305C337.912 174.305 337.898 174.305 337.872 174.305C337.673 174.278 337.528 174.093 337.554 173.895C337.66 173.087 337.766 172.293 337.872 171.525C337.898 171.326 338.084 171.181 338.282 171.22C338.48 171.247 338.613 171.432 338.586 171.631C338.48 172.399 338.375 173.18 338.269 173.987C338.255 174.173 338.097 174.305 337.925 174.305ZM338.586 169.579C338.573 169.579 338.547 169.579 338.533 169.579C338.335 169.552 338.203 169.367 338.229 169.168C338.348 168.347 338.48 167.566 338.599 166.812C338.626 166.613 338.824 166.481 339.023 166.507C339.221 166.534 339.353 166.732 339.327 166.931C339.208 167.685 339.076 168.467 338.957 169.287C338.917 169.446 338.771 169.579 338.586 169.579ZM339.367 164.866C339.34 164.866 339.327 164.866 339.301 164.866C339.102 164.826 338.97 164.64 339.009 164.442C339.155 163.608 339.301 162.827 339.433 162.085C339.472 161.887 339.658 161.754 339.856 161.794C340.055 161.834 340.187 162.019 340.147 162.218C340.015 162.959 339.869 163.74 339.724 164.561C339.684 164.746 339.539 164.866 339.367 164.866ZM340.253 160.179C340.226 160.179 340.2 160.179 340.187 160.166C339.988 160.126 339.856 159.927 339.896 159.742C340.068 158.855 340.24 158.074 340.385 157.399C340.425 157.2 340.623 157.081 340.822 157.121C341.02 157.16 341.139 157.359 341.1 157.558C340.954 158.233 340.782 159.014 340.61 159.888C340.57 160.06 340.412 160.179 340.253 160.179ZM341.271 155.506C341.245 155.506 341.219 155.506 341.192 155.492C340.994 155.439 340.875 155.254 340.928 155.055C341.007 154.738 341.06 154.513 341.086 154.38C340.861 153.957 340.637 153.546 340.412 153.123C340.319 152.95 340.385 152.725 340.57 152.633C340.756 152.54 340.967 152.606 341.06 152.792C341.298 153.242 341.536 153.705 341.787 154.155L341.854 154.288L341.814 154.433C341.814 154.433 341.748 154.711 341.615 155.228C341.589 155.4 341.43 155.506 341.271 155.506ZM339.671 151.19C339.539 151.19 339.406 151.11 339.34 150.978C338.996 150.263 338.652 149.521 338.335 148.793C338.256 148.608 338.335 148.396 338.52 148.317C338.705 148.237 338.917 148.317 338.996 148.502C339.314 149.217 339.644 149.945 339.988 150.66C340.081 150.845 340.002 151.057 339.816 151.15C339.777 151.176 339.724 151.19 339.671 151.19ZM337.753 146.821C337.607 146.821 337.475 146.728 337.409 146.596C337.118 145.841 336.84 145.086 336.576 144.345C336.509 144.16 336.615 143.948 336.8 143.882C336.986 143.815 337.197 143.921 337.263 144.107C337.515 144.835 337.793 145.59 338.084 146.331C338.163 146.516 338.07 146.728 337.872 146.807C337.845 146.821 337.806 146.821 337.753 146.821ZM336.205 142.319C336.046 142.319 335.901 142.214 335.861 142.055C335.636 141.274 335.425 140.492 335.239 139.738C335.187 139.539 335.319 139.341 335.504 139.301C335.689 139.248 335.901 139.38 335.941 139.566C336.126 140.32 336.324 141.088 336.549 141.856C336.602 142.055 336.496 142.253 336.298 142.306C336.271 142.306 336.245 142.319 336.205 142.319ZM335.107 137.673C334.935 137.673 334.776 137.553 334.75 137.368C334.605 136.574 334.485 135.766 334.406 134.985C334.38 134.786 334.525 134.601 334.724 134.588C334.922 134.575 335.107 134.707 335.12 134.906C335.213 135.673 335.319 136.455 335.464 137.249C335.504 137.448 335.372 137.633 335.173 137.673C335.147 137.673 335.134 137.673 335.107 137.673ZM334.578 132.933C334.38 132.933 334.221 132.774 334.221 132.589C334.194 132.112 334.194 131.622 334.194 131.132C334.194 130.815 334.194 130.484 334.208 130.179C334.208 129.981 334.38 129.822 334.565 129.822H334.578C334.776 129.822 334.935 129.994 334.935 130.193C334.922 130.497 334.922 130.815 334.922 131.132C334.922 131.596 334.935 132.072 334.948 132.549C334.962 132.748 334.803 132.92 334.605 132.933C334.591 132.933 334.578 132.933 334.578 132.933ZM334.724 128.18C334.71 128.18 334.697 128.18 334.684 128.18C334.485 128.154 334.34 127.982 334.366 127.783C334.459 126.975 334.578 126.181 334.737 125.4C334.777 125.201 334.975 125.082 335.16 125.109C335.359 125.148 335.491 125.334 335.451 125.532C335.306 126.287 335.173 127.068 335.094 127.862C335.068 128.035 334.909 128.18 334.724 128.18ZM335.663 123.507C335.623 123.507 335.597 123.507 335.557 123.494C335.359 123.441 335.253 123.229 335.306 123.043C335.53 122.276 335.795 121.508 336.099 120.753C336.179 120.568 336.39 120.475 336.576 120.555C336.761 120.634 336.853 120.846 336.774 121.031C336.483 121.759 336.232 122.501 336.007 123.255C335.967 123.401 335.822 123.507 335.663 123.507ZM337.422 119.085C337.369 119.085 337.316 119.072 337.25 119.045C337.078 118.953 336.999 118.741 337.091 118.555C337.462 117.841 337.859 117.139 338.295 116.464C338.401 116.292 338.626 116.239 338.798 116.358C338.97 116.464 339.023 116.689 338.904 116.861C338.48 117.523 338.097 118.211 337.74 118.9C337.687 119.006 337.554 119.085 337.422 119.085ZM339.988 115.06C339.909 115.06 339.83 115.034 339.764 114.981C339.605 114.862 339.578 114.623 339.697 114.465C340.187 113.829 340.716 113.207 341.258 112.624C341.391 112.479 341.629 112.465 341.774 112.611C341.92 112.743 341.933 112.982 341.787 113.127C341.258 113.697 340.742 114.306 340.266 114.915C340.2 115.021 340.094 115.06 339.988 115.06ZM343.229 111.565C343.137 111.565 343.031 111.526 342.965 111.446C342.832 111.3 342.846 111.062 342.991 110.93C343.586 110.387 344.221 109.871 344.856 109.394C345.015 109.275 345.24 109.301 345.359 109.46C345.478 109.619 345.452 109.844 345.293 109.963C344.671 110.427 344.063 110.93 343.481 111.459C343.401 111.539 343.309 111.565 343.229 111.565Z" fill="#11829A"/>
<path d="M337.396 230.227C337.21 230.227 337.052 230.094 337.039 229.909C336.986 229.512 336.946 229.101 336.893 228.704C336.867 228.505 337.012 228.32 337.21 228.307C337.409 228.28 337.594 228.426 337.607 228.625C337.647 229.022 337.7 229.432 337.753 229.829C337.779 230.028 337.634 230.213 337.435 230.24C337.422 230.227 337.409 230.227 337.396 230.227Z" fill="#11829A"/>
<path d="M292.5 144.319C292.447 144.054 287.155 117.814 294.418 98.538C294.51 98.2865 294.788 98.1541 295.039 98.26C295.291 98.3527 295.423 98.6307 295.317 98.8822C289.245 115.021 292.103 136.19 293.135 142.359C296.375 135.846 311.032 116.821 317.329 109.116C321.919 103.489 322.593 99.7295 322.342 97.5451C322.078 95.268 320.808 94.2751 320.755 94.2353C320.543 94.0765 320.503 93.772 320.662 93.5602C320.821 93.3483 321.125 93.3086 321.337 93.4675C321.403 93.5204 322.964 94.7252 323.295 97.3995C323.718 100.842 321.959 104.985 318.083 109.738C307.13 123.136 293.346 142.041 293.465 144.186L292.5 144.319Z" fill="black"/>
<path d="M293.473 144.183L292.512 144.271L293.933 159.842L294.895 159.754L293.473 144.183Z" fill="black"/>
<path d="M306.892 173.233L287.883 175.748L285.594 174.53L284.153 162.377L304.762 158.63L306.561 159.398L306.892 173.233Z" fill="#ABDAF7"/>
<path d="M306.892 173.233L287.883 175.748L285.594 174.53L305.146 171.776L304.762 158.63L306.561 159.398L306.892 173.233Z" fill="#11829A"/>
<path d="M303.995 135.316V142.134C303.995 142.134 319.564 141.644 326.377 144.663V138.043C326.377 138.043 319.67 133.846 303.995 135.316Z" fill="#11829A"/>
<path d="M366.537 209.163C347.939 214.274 340.438 212.645 340.438 212.645C340.438 212.645 337.171 215.756 332.713 212.897C328.255 210.037 325.318 207.323 325.318 207.323C325.318 207.323 322.157 207.071 320.332 208.011C320.332 208.011 319.048 208.846 318.704 208.117C318.704 208.117 315.834 209.296 315.741 207.813C315.741 207.813 313.717 207.27 314.167 205.88C314.617 204.503 319.948 198.903 319.948 198.903C319.948 198.903 319.842 197.672 316.932 199.049C314.022 200.439 311.455 201.392 312.937 199.035C312.937 199.035 320.768 192.072 325.451 194.349C330.134 196.639 334.935 207.191 341.338 203.484C347.74 199.79 361.881 182.367 361.987 177.8C362.079 174.014 351.179 161.768 347.449 157.69C346.682 156.856 346.219 156.353 346.219 156.353C346.219 156.353 359.156 140.029 373.508 135.779C373.508 135.779 375.506 138.229 378.271 141.988C383.099 148.542 390.255 159.093 393.298 167.659C398.073 181.189 385.136 204.04 366.537 209.163Z" fill="#B76B78"/>
<path d="M378.257 142.015C364.791 144.226 351.814 154.102 347.423 157.703C346.655 156.869 346.192 156.366 346.192 156.366C346.192 156.366 359.129 140.042 373.482 135.793C373.495 135.806 375.493 138.242 378.257 142.015Z" fill="#A04A64"/>
<path d="M318.691 208.342C318.546 208.342 318.44 208.223 318.453 208.091C318.559 205.748 324.617 202.901 324.869 202.782C324.988 202.729 325.133 202.782 325.186 202.901C325.239 203.02 325.186 203.166 325.067 203.219C323.387 204 319.009 206.396 318.929 208.104C318.929 208.237 318.823 208.342 318.691 208.342Z" fill="#A4465F"/>
<path d="M315.728 208.051C315.715 208.051 315.688 208.051 315.675 208.038C315.543 208.011 315.463 207.879 315.503 207.747C316.707 202.835 324.168 199.658 324.485 199.525C324.604 199.472 324.75 199.538 324.803 199.658C324.855 199.777 324.803 199.922 324.67 199.975C324.591 200.002 317.104 203.206 315.966 207.866C315.94 207.972 315.847 208.051 315.728 208.051Z" fill="#A4465F"/>
<path d="M319.935 199.141C319.895 199.141 319.855 199.128 319.816 199.102C319.697 199.035 319.657 198.89 319.736 198.771C320.821 196.944 323.242 196.282 324.988 196.282C325.12 196.282 325.226 196.388 325.226 196.52C325.226 196.652 325.12 196.758 324.988 196.758C323.374 196.772 321.138 197.367 320.16 199.009C320.093 199.102 320.014 199.141 319.935 199.141Z" fill="#A4465F"/>
<path d="M293.796 61.0716C293.426 61.0716 293.082 60.8598 292.91 60.5023C292.896 60.4626 291.891 58.3311 290.039 58.437C289.497 58.4635 289.047 58.0531 289.02 57.5235C288.994 56.994 289.404 56.5306 289.933 56.5041C293.108 56.3188 294.616 59.5623 294.682 59.708C294.907 60.1978 294.682 60.7671 294.193 60.9922C294.074 61.0451 293.941 61.0716 293.796 61.0716Z" fill="black"/>
<path d="M297.804 61.0583C297.632 61.0583 297.46 61.0186 297.301 60.9127C296.852 60.6347 296.706 60.0522 296.971 59.6021C297.05 59.4564 297.83 58.212 299.775 57.828C301.508 57.4838 303.611 57.8015 303.704 57.8148C304.233 57.8942 304.59 58.3973 304.511 58.9269C304.431 59.4564 303.929 59.8139 303.4 59.7344C303.386 59.7344 301.534 59.4432 300.159 59.7212C299.061 59.9463 298.637 60.5685 298.624 60.595C298.439 60.8995 298.122 61.0583 297.804 61.0583Z" fill="black"/>
<path d="M290.357 75.4756C289.417 75.4756 288.849 75.2506 288.597 74.8137C288.095 73.9002 289.193 72.2188 291.944 69.6637C294.643 67.1615 293.452 62.9118 293.439 62.8721C293.399 62.7397 293.479 62.6073 293.611 62.5676C293.743 62.5279 293.875 62.6073 293.915 62.7265C293.968 62.9118 295.198 67.3072 292.288 70.0079C288.849 73.1985 288.862 74.2577 289.034 74.5622C289.232 74.9328 290.185 75.383 294.338 74.2841C294.471 74.2444 294.603 74.3239 294.629 74.4562C294.669 74.5886 294.59 74.721 294.457 74.7475C292.685 75.2373 291.322 75.4756 290.357 75.4756Z" fill="#A4465F"/>
<path d="M290.343 77.7395C290.343 77.7395 297.592 79.0237 300.794 77.7395C300.794 77.7395 300.159 82.2937 295.251 82.0025C290.343 81.7245 290.343 77.7395 290.343 77.7395Z" fill="white"/>
<path d="M299.828 66.6452C300.551 66.6452 301.137 65.9043 301.137 64.9903C301.137 64.0764 300.551 63.3355 299.828 63.3355C299.105 63.3355 298.518 64.0764 298.518 64.9903C298.518 65.9043 299.105 66.6452 299.828 66.6452Z" fill="#0A0134"/>
<path d="M290.714 66.1157C291.349 66.1157 291.865 65.3747 291.865 64.4608C291.865 63.5468 291.349 62.8059 290.714 62.8059C290.078 62.8059 289.563 63.5468 289.563 64.4608C289.563 65.3747 290.078 66.1157 290.714 66.1157Z" fill="#0A0134"/>
<path d="M183.778 25.2733C169.399 31.6545 179.624 41.266 179.638 41.2793C179.307 40.9615 177.733 41.2528 177.349 41.319C175.51 41.6235 174.611 42.8018 174.598 44.6287C174.598 45.6084 174.783 46.8397 175.444 47.6208C175.444 47.6208 173.142 49.3154 176.053 53.4989C178.963 57.6957 209.361 62.3558 209.361 62.3558L212.06 56.2658C212.06 56.2658 214.97 53.0223 211.795 49.5007C211.795 49.5007 214.017 47.0647 213.277 44.8406C212.536 42.6032 210.446 42.4708 210.446 42.4708C210.446 42.4708 201.847 17.2504 183.778 25.2733Z" fill="#0F004F"/>
<path d="M207.602 66.8173C207.602 66.8173 204.559 84.3326 207.668 90.0121L184.704 106.309L185.352 91.1374L185.577 85.8286C185.577 85.8286 174.637 83.194 173.553 76.2965C172.468 69.3989 176.529 57.4971 177.68 51.6189C178.831 45.7276 179.294 42.153 179.294 42.153H180.1C180.1 42.153 193.408 45.529 201.186 43.5696C201.186 43.5696 201.662 45.8732 200.644 46.5484C199.625 47.2236 204.215 46.5484 204.215 46.5484C204.215 46.5484 206.649 50.8776 203.818 54.5315C203.078 55.4053 206.12 55.0743 206.12 55.0743C206.12 55.0743 206.517 60.2111 205.842 61.3629C205.168 62.5147 206.715 61.4291 207.324 59.7477C207.932 58.0531 210.432 56.2923 212.668 57.3779C214.89 58.437 213.554 66.076 207.602 66.8173Z" fill="#FEB7C5"/>
<path d="M205.909 68.406C205.803 69.1871 202.998 89.5752 185.352 91.1374L185.577 85.8286C185.577 85.8153 202.112 85.8947 205.909 68.406Z" fill="#FEA0AE"/>
<path d="M181.198 70.8949C180.405 70.8949 179.598 70.8155 178.831 70.511C178.592 70.4183 178.315 70.286 178.13 70.0344C177.891 69.7167 177.838 69.2798 177.971 68.8694C178.196 68.1677 178.791 67.8367 179.307 67.5322C179.505 67.4131 179.704 67.3072 179.862 67.188C180.352 66.8041 180.788 66.3275 181.172 65.7847C181.833 64.858 182.336 63.6929 182.68 62.3293C183.05 60.8465 183.222 59.2976 183.156 57.8545C183.143 57.5897 183.355 57.3647 183.619 57.3514C183.884 57.3382 184.109 57.55 184.122 57.8148C184.188 59.3638 184.016 61.0054 183.619 62.5676C183.249 64.0504 182.693 65.3213 181.966 66.3407C181.529 66.963 181.013 67.5058 180.458 67.9426C180.246 68.1148 180.008 68.2471 179.783 68.3663C179.36 68.6046 179.003 68.8032 178.897 69.1606C178.857 69.2666 178.87 69.3857 178.91 69.4519C178.963 69.5181 179.122 69.5843 179.188 69.6108C180.286 70.0344 181.556 69.9417 182.799 69.8491C183.077 69.8226 183.355 69.8094 183.632 69.7961C183.897 69.7829 184.122 69.9815 184.148 70.2595C184.162 70.5243 183.963 70.7493 183.685 70.7758C183.421 70.789 183.143 70.8155 182.865 70.8288C182.31 70.8552 181.754 70.8949 181.198 70.8949Z" fill="#FEA0AE"/>
<path d="M183.897 76.6142C182.402 76.6142 181.331 76.1508 180.749 75.8331C180.484 75.6875 180.418 75.3433 180.603 75.105C180.749 74.9196 181.013 74.8667 181.212 74.9858C182.27 75.5816 185.696 76.9055 190.696 72.4704C190.895 72.2983 191.199 72.2983 191.371 72.4969C191.556 72.6955 191.543 73.0132 191.344 73.1853C188.328 75.8728 185.775 76.6142 183.897 76.6142Z" fill="#FEA0AE"/>
<path d="M195.63 54.4653C195.471 54.4653 195.326 54.3859 195.233 54.2535C193.355 51.4468 190.749 53.0355 190.643 53.1149C190.418 53.2606 190.114 53.1944 189.969 52.9693C189.823 52.7442 189.889 52.4398 190.114 52.3074C190.154 52.2809 193.62 50.1362 196.027 53.7372C196.173 53.9622 196.12 54.2667 195.895 54.4124C195.815 54.4388 195.723 54.4653 195.63 54.4653Z" fill="black"/>
<path d="M182.204 54.1211C182.019 54.1211 181.847 54.0152 181.767 53.8299C180.775 51.6189 179.241 51.6189 179.188 51.6189C178.91 51.6189 178.698 51.4071 178.698 51.1423C178.698 50.8776 178.897 50.6525 179.161 50.6393C179.254 50.6393 181.397 50.5995 182.667 53.4327C182.772 53.671 182.667 53.9622 182.429 54.0682C182.336 54.1079 182.27 54.1211 182.204 54.1211Z" fill="black"/>
<path d="M191.9 62.369C192.747 62.369 193.434 61.6815 193.434 60.8333C193.434 59.9851 192.747 59.2976 191.9 59.2976C191.052 59.2976 190.365 59.9851 190.365 60.8333C190.365 61.6815 191.052 62.369 191.9 62.369Z" fill="black"/>
<path d="M179.902 60.542C180.582 60.542 181.132 59.8545 181.132 59.0063C181.132 58.1581 180.582 57.4706 179.902 57.4706C179.223 57.4706 178.672 58.1581 178.672 59.0063C178.672 59.8545 179.223 60.542 179.902 60.542Z" fill="black"/>
<path d="M208.501 61.3231L208.065 61.0981C208.66 59.933 210.3 57.9472 212.218 58.7945L212.02 59.2446C210.036 58.3576 208.514 61.2834 208.501 61.3231Z" fill="black"/>
<path d="M185.352 86.7553L183.923 86.3581L179.122 91.1374L178.725 92.6334C178.725 92.6334 154.755 103.979 143.948 120.012C133.141 136.044 104.012 200.531 150.509 198.599L147.811 229.882H243.886C243.886 229.882 238.489 191.463 240.024 187.014C241.558 182.566 250.633 139.711 245.037 123.48C239.442 107.249 213.422 91.1374 213.422 91.1374C213.422 91.1374 210.723 83.0881 206.583 86.3581L207.046 88.4896L184.863 102.285L185.352 86.7553Z" fill="white"/>
<path d="M162.587 153.374C162.587 153.374 162.586 151.269 160.814 150.144C159.041 149.018 152.732 147.747 151.845 150.753C150.959 153.758 151.448 162.708 152.335 164.402C153.221 166.097 157.56 166.282 158.34 165.21C159.134 164.124 162.587 153.374 162.587 153.374Z" fill="#FDB9C4"/>
<path d="M189.347 110.109L184.519 103.728L177.614 107.567L178.196 94.5796C178.209 94.3148 178.434 94.1029 178.698 94.1162C178.963 94.1294 179.175 94.3545 179.161 94.6193L178.659 105.872L184.783 102.47L189.545 108.759L212.298 92.0377C212.509 91.8788 212.814 91.9317 212.972 92.1436C213.131 92.3554 213.078 92.6599 212.866 92.8188L189.347 110.109Z" fill="#79A1BC"/>
<path d="M178.698 157.769C176.952 148.899 183.818 107.329 184.109 105.555L184.585 105.634C184.519 106.071 177.442 148.886 179.174 157.677L178.698 157.769Z" fill="#79A1BC"/>
<path d="M174.399 229.22C174.214 229.22 174.042 229.114 173.963 228.942C172.322 225.341 175.113 199.34 175.233 198.228C175.259 197.963 175.497 197.764 175.762 197.804C176.026 197.831 176.225 198.069 176.185 198.334C175.378 205.787 173.553 225.752 174.822 228.532C174.928 228.77 174.822 229.062 174.584 229.181C174.545 229.207 174.465 229.22 174.399 229.22Z" fill="#79A1BC"/>
<path d="M240.672 155.082C240.672 155.082 239.349 181.295 213.753 199.737C188.156 218.192 153.618 172.65 153.618 172.65C153.618 172.65 159.319 152.884 162.692 150.832C162.692 150.832 165.206 150.038 170.246 153.533C175.286 157.028 185.114 164.098 185.114 164.098" fill="white"/>
<path d="M200.287 204.583C192.35 204.583 183.394 200.876 173.791 193.502C162.044 184.486 153.327 173.06 153.234 172.941L153.089 172.743L153.155 172.504C153.75 170.466 159.015 152.5 162.441 150.409L162.547 150.356C162.653 150.316 165.338 149.535 170.523 153.123C175.524 156.578 185.299 163.621 185.405 163.687L184.836 164.468C184.744 164.402 174.955 157.359 169.968 153.904C165.616 150.898 163.248 151.19 162.878 151.256C160.272 153.017 155.774 166.944 154.147 172.518C155.338 174.053 163.565 184.42 174.386 192.707C189.889 204.596 203.038 206.82 213.462 199.313C238.569 181.229 240.169 155.28 240.182 155.029L241.148 155.082C241.135 155.347 239.521 181.732 214.031 200.108C209.917 203.113 205.3 204.583 200.287 204.583Z" fill="#79A1BC"/>
<path d="M203.66 150.634C203.594 150.634 203.514 150.62 203.448 150.581C203.21 150.461 203.104 150.17 203.223 149.932C203.289 149.8 209.639 136.852 212.126 129.186C214.639 121.428 220.869 112.505 229.124 110.043C229.375 109.963 229.653 110.109 229.732 110.374C229.812 110.625 229.666 110.903 229.402 110.983C221.491 113.339 215.499 121.984 213.052 129.491C210.538 137.222 204.162 150.236 204.096 150.369C204.004 150.541 203.832 150.634 203.66 150.634Z" fill="#79A1BC"/>
<path d="M150.522 198.824L150.469 198.347C150.589 198.334 162.957 196.93 169.783 190.457L170.113 190.814C163.168 197.394 150.655 198.81 150.522 198.824Z" fill="#79A1BC"/>
<path d="M210.618 218.258C200.895 218.258 195.154 213.956 195.061 213.89C194.85 213.731 194.81 213.426 194.969 213.214C195.128 213.003 195.432 212.963 195.643 213.122C195.763 213.214 208.21 222.495 227.576 213.069C227.814 212.95 228.105 213.056 228.224 213.294C228.343 213.532 228.237 213.823 227.999 213.943C221.359 217.186 215.499 218.258 210.618 218.258Z" fill="#79A1BC"/>
<path d="M189.969 136.746L189.003 136.613C189.426 133.423 195.154 126.38 201.781 118.211C207.615 111.036 213.647 103.609 216.015 98.7366C217.629 95.4136 217.92 92.8188 216.888 91.0183C215.591 88.7676 212.562 88.5028 212.536 88.5028L212.602 87.5364C212.747 87.5496 216.16 87.8277 217.721 90.5284C218.925 92.6202 218.647 95.5328 216.875 99.1603C214.454 104.125 208.395 111.605 202.522 118.82C196.556 126.194 190.365 133.82 189.969 136.746Z" fill="#074772"/>
<path d="M191.614 140.695C193.28 137.952 193.204 134.86 191.443 133.789C189.683 132.718 186.905 134.073 185.239 136.816C183.573 139.558 183.649 142.65 185.41 143.721C187.17 144.792 189.948 143.437 191.614 140.695Z" fill="#5C93E1"/>
<path d="M186.767 144.57C185.749 144.57 184.876 144.133 184.307 143.352C183.46 142.214 183.315 140.479 183.897 138.613C184.889 135.435 187.601 132.933 190.074 132.933C191.093 132.933 191.966 133.37 192.535 134.151C193.381 135.29 193.527 137.024 192.945 138.891C191.966 142.081 189.241 144.57 186.767 144.57ZM190.074 133.913C188.024 133.913 185.67 136.15 184.823 138.904C184.347 140.453 184.439 141.909 185.087 142.783C185.484 143.326 186.066 143.604 186.767 143.604C188.818 143.604 191.172 141.366 192.019 138.613C192.495 137.064 192.403 135.607 191.754 134.734C191.358 134.191 190.776 133.913 190.074 133.913Z" fill="#074772"/>
<path d="M160.007 142.558C158.724 134.906 158.406 124.367 164.161 117.576C167.084 114.12 170.391 113.035 171.463 112.757C172.124 108.083 177.468 97.8099 177.706 97.373L178.566 97.8231C178.513 97.929 172.799 108.904 172.388 113.207L172.349 113.578L171.992 113.644C171.952 113.657 168.116 114.398 164.862 118.264C160.523 123.414 159.187 131.768 160.973 142.399L160.007 142.558Z" fill="#074772"/>
<path d="M172.534 144.319L171.714 143.802C171.846 143.59 185.048 122.196 171.648 113.564L172.177 112.743C186.371 121.905 172.679 144.107 172.534 144.319Z" fill="#074772"/>
<path d="M177.706 126.578C175.947 123.057 173.685 121.005 170.973 120.462C166.343 119.548 161.872 123.374 161.819 123.414L161.184 122.686C161.383 122.514 166.052 118.516 171.158 119.522C174.174 120.118 176.674 122.355 178.579 126.155L177.706 126.578Z" fill="#074772"/>
<path d="M160.801 143.855C160.047 143.855 159.319 143.233 159.187 142.478L158.856 140.572C158.724 139.817 159.226 139.195 159.994 139.195C160.748 139.195 161.475 139.817 161.608 140.572L161.938 142.478C162.07 143.246 161.555 143.855 160.801 143.855Z" fill="#5C93E1"/>
<path d="M160.801 144.345C159.795 144.345 158.883 143.564 158.711 142.571L158.38 140.665C158.287 140.162 158.42 139.658 158.724 139.288C159.028 138.917 159.478 138.718 159.994 138.718C160.999 138.718 161.912 139.5 162.084 140.492L162.414 142.399C162.507 142.902 162.375 143.405 162.071 143.776C161.753 144.146 161.303 144.345 160.801 144.345ZM159.981 139.685C159.769 139.685 159.584 139.764 159.451 139.91C159.332 140.056 159.279 140.267 159.319 140.492L159.65 142.399C159.742 142.928 160.272 143.379 160.787 143.379C160.999 143.379 161.198 143.299 161.317 143.154C161.436 143.008 161.489 142.796 161.449 142.571L161.118 140.665C161.026 140.135 160.51 139.685 159.981 139.685Z" fill="#074772"/>
<path d="M171.211 145.166C170.656 144.65 170.537 143.71 170.96 143.061L172.005 141.432C172.415 140.784 173.209 140.678 173.764 141.194C174.32 141.71 174.439 142.65 174.016 143.299L172.971 144.928C172.561 145.576 171.78 145.682 171.211 145.166Z" fill="#5C93E1"/>
<path d="M172.005 145.987C171.595 145.987 171.211 145.828 170.894 145.537C170.166 144.861 170.007 143.657 170.563 142.809L171.608 141.181C171.886 140.744 172.322 140.466 172.799 140.4C173.275 140.334 173.738 140.492 174.121 140.837C174.849 141.512 175.008 142.717 174.452 143.564L173.407 145.192C173.129 145.629 172.693 145.907 172.217 145.973C172.137 145.973 172.071 145.987 172.005 145.987ZM171.542 144.822C171.701 144.967 171.899 145.033 172.071 145.007C172.269 144.981 172.441 144.861 172.561 144.663L173.606 143.034C173.897 142.584 173.817 141.896 173.434 141.538C173.275 141.393 173.09 141.327 172.904 141.353C172.706 141.379 172.534 141.499 172.415 141.697L171.37 143.326C171.079 143.776 171.158 144.464 171.542 144.822Z" fill="#074772"/>
<path d="M202.721 151.746C196.9 151.388 185.789 162.271 185.921 165.104C185.921 165.104 189.889 170.161 196.464 165.104C196.464 165.104 200.604 168.083 204.85 167.354C204.85 167.354 207.879 168.745 207.575 166.719C207.575 166.719 208.554 166.189 208.329 164.892C208.104 163.595 206.08 157.028 202.879 156.009C202.879 156.009 203.435 155.228 205.3 155.731C207.152 156.234 210.975 158.365 212.43 158.153C212.417 158.153 209.917 152.183 202.721 151.746Z" fill="#FEB7C5"/>
<path d="M207.337 166.785C206.001 161.728 200.538 157.544 200.485 157.505L200.776 157.121C201.001 157.293 206.424 161.437 207.8 166.666L207.337 166.785Z" fill="#FEA0AE"/>
<path d="M204.625 167.46C203.818 165.819 198.739 161.701 198.686 161.662L198.99 161.291C199.202 161.463 204.202 165.514 205.062 167.249L204.625 167.46Z" fill="#FEA0AE"/>
<path d="M153.631 148.171C153.605 148.171 153.591 148.171 153.565 148.171C153.3 148.131 153.115 147.893 153.142 147.628C153.221 146.966 155.218 131.331 157.361 125.546C157.454 125.294 157.732 125.162 157.983 125.254C158.234 125.347 158.367 125.625 158.274 125.877C156.158 131.556 154.121 147.589 154.107 147.747C154.081 147.999 153.869 148.171 153.631 148.171Z" fill="#79A1BC"/>
<path d="M189.896 139.649C190.663 138.387 190.626 136.964 189.815 136.47C189.003 135.976 187.724 136.599 186.957 137.861C186.191 139.123 186.227 140.546 187.039 141.04C187.85 141.534 189.129 140.911 189.896 139.649Z" fill="white"/>
<path d="M187.654 141.697C187.098 141.697 186.622 141.459 186.304 141.035C185.868 140.44 185.789 139.566 186.08 138.626C186.569 137.064 187.918 135.832 189.175 135.832C189.73 135.832 190.207 136.071 190.524 136.494C190.961 137.09 191.04 137.964 190.749 138.904C190.26 140.466 188.91 141.697 187.654 141.697ZM189.175 136.786C188.355 136.786 187.363 137.752 187.005 138.891C186.807 139.526 186.834 140.109 187.085 140.44C187.217 140.625 187.402 140.718 187.654 140.718C188.474 140.718 189.466 139.751 189.823 138.613C190.022 137.977 189.995 137.395 189.744 137.064C189.611 136.878 189.413 136.786 189.175 136.786Z" fill="#092A7C"/>
<path d="M176.622 65.8244C173.275 65.8244 170.563 62.7662 170.563 59.0196C170.563 55.2597 173.275 52.2147 176.622 52.2147C179.968 52.2147 182.68 55.2729 182.68 59.0196C182.68 62.7662 179.968 65.8244 176.622 65.8244ZM176.622 53.1811C173.817 53.1811 171.529 55.8025 171.529 59.0196C171.529 62.2366 173.817 64.858 176.622 64.858C179.426 64.858 181.714 62.2366 181.714 59.0196C181.714 55.8025 179.426 53.1811 176.622 53.1811Z" fill="#0F004F"/>
<path d="M191.662 68.8826C187.905 68.8826 184.863 65.8244 184.863 62.0778C184.863 58.3179 187.918 55.2729 191.662 55.2729C195.405 55.2729 198.461 58.3311 198.461 62.0778C198.461 65.8376 195.419 68.8826 191.662 68.8826ZM191.662 56.2394C188.447 56.2394 185.828 58.8607 185.828 62.0778C185.828 65.2948 188.447 67.9162 191.662 67.9162C194.876 67.9162 197.495 65.2948 197.495 62.0778C197.495 58.8607 194.876 56.2394 191.662 56.2394Z" fill="#0F004F"/>
<path d="M185.352 60.1978C184.069 58.5959 182.601 59.3505 182.429 59.43L181.952 58.5827C182.746 58.1325 184.638 57.7486 186.106 59.5756L185.352 60.1978Z" fill="#0F004F"/>
<path d="M208.137 57.8313L197.833 61.0024L198.117 61.9261L208.421 58.755L208.137 57.8313Z" fill="#0F004F"/>
</svg>
