<svg width="36" height="36" viewBox="0 0 36 36" fill="none" xmlns="http://www.w3.org/2000/svg">
<path d="M4.56131 18.8184C6.16781 21.9684 7.38619 24.8231 8.36494 27.1187C10.4276 31.9556 11.6724 34.875 14.0625 34.875C16.5977 34.875 16.875 32.8933 16.875 28.6875C16.875 23.4855 17.3846 23.0625 18 23.0625C18.6154 23.0625 19.125 23.4855 19.125 28.6875C19.125 32.8933 19.4023 34.875 21.9375 34.875C24.3276 34.875 25.5724 31.9556 27.6351 27.1187C28.6138 24.8231 29.8322 21.9668 31.4387 18.8184L31.6271 18.4494C32.625 16.5105 33.75 14.3123 33.75 11.8125C33.75 5.81962 29.7967 1.125 24.75 1.125C22.8046 1.14718 20.9149 1.77779 19.3461 2.92837C18.9449 3.18751 18.4775 3.32535 18 3.32535C17.5225 3.32535 17.0551 3.18751 16.6539 2.92837C15.0851 1.77779 13.1954 1.14718 11.25 1.125C6.20325 1.125 2.25 5.81962 2.25 11.8125C2.25 14.3123 3.37781 16.5105 4.37288 18.45L4.56131 18.8184ZM11.25 2.25C12.9491 2.26837 14.5999 2.81792 15.9711 3.82162C17.6319 4.91734 19.5884 5.47817 21.5775 5.42869C22.9824 5.42058 24.3768 5.18484 25.7063 4.73062L25.3502 3.66188C23.4961 4.32006 21.5001 4.4721 19.5677 4.10231C19.7302 4.02401 19.8845 3.9298 20.0284 3.82106C21.3997 2.81745 23.0507 2.26809 24.75 2.25C29.1662 2.25 32.625 6.45019 32.625 11.8125C32.625 14.0406 31.563 16.11 30.6264 17.9359L30.4363 18.3066C28.8124 21.4903 27.5861 24.3664 26.6006 26.6771C24.7843 30.9375 23.5845 33.75 21.9375 33.75C20.7129 33.75 20.25 33.3135 20.25 28.6875C20.25 23.9276 19.9373 21.9375 18 21.9375C16.0627 21.9375 15.75 23.9276 15.75 28.6875C15.75 33.3135 15.2871 33.75 14.0625 33.75C12.4155 33.75 11.2157 30.9375 9.39937 26.6771C8.41387 24.3664 7.18762 21.4903 5.56369 18.3066L5.37356 17.9359C4.437 16.11 3.375 14.0406 3.375 11.8125C3.375 6.45019 6.83381 2.25 11.25 2.25Z" fill="white"/>
<path d="M11.8125 4.5V3.375C9.49106 3.375 4.97588 5.13 4.5 11.7726L5.625 11.8524C6.14025 4.61925 11.583 4.5 11.8125 4.5Z" fill="white"/>
<path d="M5.625 12.9375H4.5V14.0625H5.625V12.9375Z" fill="white"/>
<path d="M31.4998 11.8125H30.3748C30.3748 11.8389 30.3214 14.5215 27.667 18.2379L28.5827 18.8916C31.4666 14.85 31.4998 11.9346 31.4998 11.8125Z" fill="white"/>
</svg>
